<?xml version="1.0" encoding="UTF-8" standalone="no"?>
<svg
   xmlns:osb="http://www.openswatchbook.org/uri/2009/osb"
   xmlns:dc="http://purl.org/dc/elements/1.1/"
   xmlns:cc="http://creativecommons.org/ns#"
   xmlns:rdf="http://www.w3.org/1999/02/22-rdf-syntax-ns#"
   xmlns:svg="http://www.w3.org/2000/svg"
   xmlns="http://www.w3.org/2000/svg"
   xmlns:xlink="http://www.w3.org/1999/xlink"
   xmlns:sodipodi="http://sodipodi.sourceforge.net/DTD/sodipodi-0.dtd"
   xmlns:inkscape="http://www.inkscape.org/namespaces/inkscape"
   inkscape:export-ydpi="100.296"
   inkscape:export-xdpi="100.296"
   inkscape:export-filename="/home/curlymorphic/dev/VCVModuleIdeas/res/bandsplit.png"
   inkscape:version="1.0 (947b245b96, 2020-05-01)"
   sodipodi:docname="bandsplit.svg"
   id="svg4541"
   version="1.1"
   viewBox="0 0 15.24 128.50002"
   height="128.5mm"
   width="15.24mm">
  <title
     id="title4354">SSPO 3HP template</title>
  <defs
     id="defs4535">
    <linearGradient
       osb:paint="solid"
       id="linearGradient1761">
      <stop
         id="stop1759"
         offset="0"
         style="stop-color:#ffff00;stop-opacity:1;" />
    </linearGradient>
    <linearGradient
       osb:paint="solid"
       id="linearGradient1755">
      <stop
         id="stop1753"
         offset="0"
         style="stop-color:#0000ff;stop-opacity:1;" />
    </linearGradient>
    <linearGradient
       osb:paint="solid"
       id="linearGradient1749">
      <stop
         id="stop1747"
         offset="0"
         style="stop-color:#00ff00;stop-opacity:1;" />
    </linearGradient>
    <linearGradient
       osb:paint="solid"
       id="linearGradient1743">
      <stop
         id="stop1741"
         offset="0"
         style="stop-color:#ff0000;stop-opacity:1;" />
    </linearGradient>
    <linearGradient
       osb:paint="solid"
       id="linearGradient1737">
      <stop
         id="stop1735"
         offset="0"
         style="stop-color:#ff00ff;stop-opacity:1;" />
    </linearGradient>
    <linearGradient
       osb:paint="solid"
       id="linearGradient1686">
      <stop
         id="stop1684"
         offset="0"
         style="stop-color:#000000;stop-opacity:1;" />
    </linearGradient>
    <linearGradient
       osb:paint="solid"
       id="linearGradient5500">
      <stop
         id="stop5498"
         offset="0"
         style="stop-color:#f0f0f0;stop-opacity:1;" />
    </linearGradient>
    <linearGradient
       osb:paint="solid"
       id="linearGradient5494">
      <stop
         id="stop5492"
         offset="0"
         style="stop-color:#cdde87;stop-opacity:1;" />
    </linearGradient>
    <linearGradient
       gradientTransform="matrix(0.27602379,0,0,0.27602379,259.10471,46.904702)"
       gradientUnits="userSpaceOnUse"
       y2="444.60522"
       x2="-867.84308"
       y1="444.60522"
       x1="-906.18518"
       id="linearGradient5496"
       xlink:href="#linearGradient5494"
       inkscape:collect="always" />
    <linearGradient
       gradientTransform="matrix(0.05150635,0,0,0.27616015,57.827317,53.733312)"
       gradientUnits="userSpaceOnUse"
       y2="269.14816"
       x2="-697.97778"
       y1="269.14816"
       x1="-993.65643"
       id="linearGradient5502"
       xlink:href="#linearGradient5500"
       inkscape:collect="always" />
    <linearGradient
       gradientTransform="translate(-78.56246,3.8129713)"
       gradientUnits="userSpaceOnUse"
       y2="102.5144"
       x2="61.397667"
       y1="102.5144"
       x1="53.460167"
       id="linearGradient1739"
       xlink:href="#linearGradient1737"
       inkscape:collect="always" />
    <linearGradient
       gradientTransform="translate(-347.945,-105.93461)"
       gradientUnits="userSpaceOnUse"
       y2="187.50511"
       x2="-830.01111"
       y1="187.50511"
       x1="-858.7677"
       id="linearGradient1745"
       xlink:href="#linearGradient1743"
       inkscape:collect="always" />
    <linearGradient
       gradientTransform="translate(-232.91854,-139.48393)"
       gradientUnits="userSpaceOnUse"
       y2="259.39655"
       x2="-945.03748"
       y1="259.39655"
       x1="-973.79407"
       id="linearGradient1751"
       xlink:href="#linearGradient1749"
       inkscape:collect="always" />
    <linearGradient
       gradientTransform="translate(-347.945,-101.14182)"
       gradientUnits="userSpaceOnUse"
       y2="259.39655"
       x2="-830.01111"
       y1="259.39655"
       x1="-858.7677"
       id="linearGradient1757"
       xlink:href="#linearGradient1755"
       inkscape:collect="always" />
    <linearGradient
       gradientTransform="translate(-78.295192,-19.814195)"
       gradientUnits="userSpaceOnUse"
       y2="136.7249"
       x2="61.130398"
       y1="136.7249"
       x1="53.192898"
       id="linearGradient1763"
       xlink:href="#linearGradient1761"
       inkscape:collect="always" />
    <linearGradient
       y2="55.57832"
       x2="-831.97699"
       y1="55.57832"
       x1="-869.41425"
       gradientTransform="matrix(0.27602379,0,0,0.27602379,248.10947,54.129396)"
       gradientUnits="userSpaceOnUse"
       id="linearGradient11095"
       xlink:href="#linearGradient1686"
       inkscape:collect="always" />
    <symbol
       id="layer1-8">
      <path
         inkscape:connector-curvature="0"
         style="fill:#000000;fill-opacity:1;fill-rule:nonzero;stroke:none;stroke-width:0.0933392"
         d="m 31.01176,22.999211 c 0,1.388419 -1.12553,2.513593 -2.513584,2.513593 -1.38842,0 -2.513596,-1.125174 -2.513596,-2.513593 0,-1.388055 1.125176,-2.513593 2.513596,-2.513593 1.388054,0 2.513584,1.125538 2.513584,2.513593"
         id="path110586" />
      <path
         inkscape:connector-curvature="0"
         style="fill:#ffffff;fill-opacity:1;fill-rule:evenodd;stroke:none;stroke-width:0.0933392"
         d="m 28.581667,20.495462 c -0.02735,-0.0062 -0.05469,-0.0098 -0.08349,-0.0098 -0.02881,0 -0.05652,0.0036 -0.0835,0.0098 v 2.53547 h 0.166994 z m 0,0"
         id="path110588" />
    </symbol>
    <symbol
       id="layer1-4">
      <path
         inkscape:connector-curvature="0"
         id="path7255"
         d="m 24.550413,33.715648 c -0.591391,0 -1.072306,-0.480912 -1.072306,-1.072309 0,-0.591386 0.480915,-1.072306 1.072306,-1.072306 0.591391,0 1.072306,0.48092 1.072306,1.072306 0,0.591397 -0.480915,1.072309 -1.072306,1.072309"
         style="fill:#e6e6e6;fill-opacity:1;fill-rule:nonzero;stroke:#636663;stroke-width:0.0661458;stroke-miterlimit:4;stroke-dasharray:none;stroke-opacity:1" />
      <path
         inkscape:connector-curvature="0"
         id="path7261"
         d="m 24.550413,33.415581 c -0.425859,0 -0.772235,-0.346382 -0.772235,-0.772242 0,-0.425857 0.346376,-0.772231 0.772235,-0.772231 0.42586,0 0.772235,0.346374 0.772235,0.772231 0,0.42586 -0.346375,0.772242 -0.772235,0.772242"
         style="fill:#e6e6e6;fill-opacity:1;fill-rule:nonzero;stroke:#636663;stroke-width:0.0661458;stroke-miterlimit:4;stroke-dasharray:none;stroke-opacity:1" />
      <path
         inkscape:connector-curvature="0"
         id="path7265"
         d="m 25.026589,32.643339 c 0,0.262882 -0.213295,0.476181 -0.476176,0.476181 -0.262881,0 -0.476176,-0.213299 -0.476176,-0.476181 0,-0.262879 0.213295,-0.476168 0.476176,-0.476168 0.262881,0 0.476176,0.213289 0.476176,0.476168"
         style="fill:#000000;fill-opacity:1;fill-rule:nonzero;stroke:none;stroke-width:0.0933392" />
    </symbol>
    <symbol
       id="layer1-3">
      <path
         inkscape:connector-curvature="0"
         style="fill:#000000;fill-opacity:1;fill-rule:nonzero;stroke:none;stroke-width:0.0933392"
         d="m 38.57825,17.56713 c 0,0.730669 -0.592113,1.323155 -1.322781,1.323155 -0.730679,0 -1.323158,-0.592486 -1.323158,-1.323155 0,-0.730671 0.592479,-1.322791 1.323158,-1.322791 0.730668,0 1.322781,0.59212 1.322781,1.322791"
         id="path110594" />
      <path
         inkscape:connector-curvature="0"
         style="fill:#ffffff;fill-opacity:1;fill-rule:evenodd;stroke:none;stroke-width:0.0933392"
         d="m 37.29958,16.249444 c -0.01458,-0.0033 -0.02917,-0.0051 -0.04411,-0.0051 -0.01532,0 -0.02953,0.0018 -0.04412,0.0051 v 1.334457 h 0.08823 z m 0,0"
         id="path110596" />
    </symbol>
    <symbol
       id="layer1-9">
      <path
         inkscape:connector-curvature="0"
         style="fill:#000000;fill-opacity:1;fill-rule:nonzero;stroke:none;stroke-width:0.0933392"
         d="m 37.215276,18.312357 c 0,0.927557 -0.752182,1.680104 -1.680105,1.680104 -0.92792,0 -1.680101,-0.752547 -1.680101,-1.680104 0,-0.927923 0.752181,-1.680104 1.680101,-1.680104 0.927923,0 1.680105,0.752181 1.680105,1.680104"
         id="path110590" />
      <path
         inkscape:connector-curvature="0"
         style="fill:#ffffff;fill-opacity:1;fill-rule:evenodd;stroke:none;stroke-width:0.0933392"
         d="m 35.590951,16.638452 c -0.01823,-0.004 -0.03682,-0.0062 -0.05578,-0.0062 -0.01934,0 -0.03792,0.0022 -0.05579,0.0062 v 1.694688 h 0.111567 z m 0,0"
         id="path110592" />
    </symbol>
    <linearGradient
       inkscape:collect="always"
       xlink:href="#linearGradient5494"
       id="linearGradient5496-9"
       x1="-906.18518"
       y1="444.60522"
       x2="-867.84308"
       y2="444.60522"
       gradientUnits="userSpaceOnUse"
       gradientTransform="matrix(0.27602378,0,0,0.27602378,259.10471,28.383872)" />
  </defs>
  <sodipodi:namedview
     inkscape:snap-others="false"
     inkscape:snap-nodes="false"
     inkscape:snap-bbox-edge-midpoints="true"
     inkscape:document-rotation="0"
     showborder="true"
     inkscape:snap-global="true"
     inkscape:bbox-nodes="true"
     inkscape:bbox-paths="true"
     inkscape:snap-bbox="true"
     units="mm"
     inkscape:window-maximized="1"
     inkscape:window-y="27"
     inkscape:window-x="0"
     inkscape:window-height="950"
     inkscape:window-width="1920"
     fit-margin-bottom="0"
     fit-margin-right="0"
     fit-margin-left="0"
     fit-margin-top="0"
     showgrid="true"
     inkscape:current-layer="layer1"
     inkscape:document-units="mm"
     inkscape:cy="438.8436"
     inkscape:cx="-601.98468"
     inkscape:zoom="0.70149741"
     inkscape:pageshadow="2"
     inkscape:pageopacity="0.0"
     borderopacity="1.0"
     bordercolor="#666666"
     pagecolor="#ffffff"
     id="base">
    <inkscape:grid
       units="mm"
       spacingx="0.50800005"
       id="grid5963"
       type="xygrid" />
  </sodipodi:namedview>
  <metadata
     id="metadata4538">
    <rdf:RDF>
      <cc:Work
         rdf:about="">
        <dc:format>image/svg+xml</dc:format>
        <dc:type
           rdf:resource="http://purl.org/dc/dcmitype/StillImage" />
        <dc:title>SSPO 3HP template</dc:title>
        <dc:identifier>SSPO 3HP template</dc:identifier>
      </cc:Work>
    </rdf:RDF>
  </metadata>
  <g
     transform="translate(-6.6477068,-63.816955)"
     id="layer1"
     inkscape:groupmode="layer"
     inkscape:label="Layer 1">
    <path
       inkscape:export-ydpi="100.2962"
       inkscape:export-xdpi="100.2962"
       inkscape:export-filename="/home/vortico/src/cpp/VCV/Rack/plugins/Fundamental/res/Delay.png"
       inkscape:connector-curvature="0"
       id="path25061"
       d="M 6.6477068,63.816955 H 21.877034 V 192.30567 H 6.6477068 Z m 0,0"
       style="fill:url(#linearGradient5502);fill-opacity:1;fill-rule:nonzero;stroke:none;stroke-width:0.182863" />
    <rect
       y="190.64796"
       x="6.6477017"
       height="1.6670943"
       width="15.237206"
       id="rect5276"
       style="fill:#cdde87;fill-opacity:1;stroke-width:0.178723" />
    <rect
       style="fill:url(#linearGradient5496);fill-opacity:1;stroke-width:0.321107"
       id="rect5287"
       width="10.583327"
       height="10.535396"
       x="8.9760437"
       y="164.35863" />
    <g
       aria-label="Studio Six Plus One"
       style="font-style:normal;font-variant:normal;font-weight:bold;font-stretch:normal;font-size:12.7807px;line-height:1.25;font-family:sans-serif;-inkscape-font-specification:'sans-serif Bold';letter-spacing:0px;word-spacing:0px;fill:#000000;fill-opacity:1;stroke:none;stroke-width:0.844236"
       id="text5967-7-1-3"
       transform="matrix(0,-0.27602379,0.3524041,0,-123.86376,-70.222618)">
      <path
         d="m -938.94801,379.11774 q 0,0.32576 -0.15352,0.64403 -0.14977,0.31827 -0.42311,0.53918 -0.29955,0.23964 -0.70019,0.37444 -0.39691,0.13479 -0.95856,0.13479 -0.60284,0 -1.08586,-0.11233 -0.47927,-0.11233 -0.97727,-0.33324 v -0.9286 h 0.0524 q 0.42311,0.35197 0.97727,0.54293 0.55417,0.19096 1.04093,0.19096 0.68896,0 1.07088,-0.25836 0.38567,-0.25836 0.38567,-0.68896 0,-0.37069 -0.18347,-0.54667 -0.17973,-0.17599 -0.55042,-0.27334 -0.28083,-0.0749 -0.61033,-0.12356 -0.32576,-0.0487 -0.6927,-0.12357 -0.74138,-0.15726 -1.10084,-0.53544 -0.35571,-0.38192 -0.35571,-0.99225 0,-0.70019 0.5916,-1.14577 0.59161,-0.44932 1.50149,-0.44932 0.58786,0 1.07837,0.11233 0.49051,0.11233 0.86869,0.27708 v 0.87618 h -0.0524 q -0.31827,-0.2696 -0.83874,-0.44558 -0.51672,-0.17973 -1.05965,-0.17973 -0.59535,0 -0.95855,0.24713 -0.35946,0.24712 -0.35946,0.63654 0,0.34822 0.17973,0.54667 0.17973,0.19845 0.6328,0.30329 0.23963,0.0524 0.68147,0.12731 0.44183,0.0749 0.74887,0.15352 0.62156,0.16475 0.93608,0.498 0.31453,0.33324 0.31453,0.93234 z"
         style="font-style:normal;font-variant:normal;font-weight:normal;font-stretch:normal;font-size:7.66842px;font-family:sans-serif;-inkscape-font-specification:sans-serif;stroke-width:0.844236"
         id="path6170"
         inkscape:connector-curvature="0" />
      <path
         d="m -935.64175,380.67164 q -0.19845,0.0524 -0.43435,0.0861 -0.23215,0.0337 -0.41562,0.0337 -0.64028,0 -0.97353,-0.34448 -0.33325,-0.34448 -0.33325,-1.10458 v -2.22414 h -0.47553 v -0.59161 h 0.47553 v -1.20193 h 0.70394 v 1.20193 h 1.45281 v 0.59161 h -1.45281 v 1.90587 q 0,0.3295 0.015,0.51672 0.015,0.18347 0.10484,0.34448 0.0824,0.14977 0.22466,0.22092 0.14603,0.0674 0.44183,0.0674 0.17224,0 0.35946,-0.0487 0.18722,-0.0524 0.26959,-0.0861 h 0.0375 z"
         style="font-style:normal;font-variant:normal;font-weight:normal;font-stretch:normal;font-size:7.66842px;font-family:sans-serif;-inkscape-font-specification:sans-serif;stroke-width:0.844236"
         id="path6172"
         inkscape:connector-curvature="0" />
      <path
         d="m -931.32078,380.70909 h -0.70394 v -0.4643 q -0.35571,0.28082 -0.68147,0.4306 -0.32575,0.14977 -0.71891,0.14977 -0.65901,0 -1.02595,-0.40064 -0.36695,-0.40439 -0.36695,-1.18322 v -2.71465 h 0.70394 v 2.38141 q 0,0.31826 0.0299,0.54667 0.03,0.22466 0.12731,0.38567 0.1011,0.16475 0.26211,0.23964 0.161,0.0749 0.46804,0.0749 0.27334,0 0.59535,-0.14228 0.32576,-0.14229 0.60658,-0.3632 v -3.12279 h 0.70394 z"
         style="font-style:normal;font-variant:normal;font-weight:normal;font-stretch:normal;font-size:7.66842px;font-family:sans-serif;-inkscape-font-specification:sans-serif;stroke-width:0.844236"
         id="path6174"
         inkscape:connector-curvature="0" />
      <path
         d="m -926.54299,380.70909 h -0.70394 V 380.271 q -0.30329,0.2621 -0.63279,0.40813 -0.32951,0.14603 -0.71517,0.14603 -0.74887,0 -1.19071,-0.57663 -0.43809,-0.57663 -0.43809,-1.59883 0,-0.5317 0.14978,-0.94732 0.15352,-0.41563 0.41188,-0.70769 0.25461,-0.28457 0.5916,-0.43434 0.34074,-0.14977 0.70394,-0.14977 0.3295,0 0.58412,0.0711 0.25461,0.0674 0.53544,0.21343 v -1.81227 h 0.70394 z m -0.70394,-1.0297 v -2.40013 q -0.28457,-0.1273 -0.50923,-0.17598 -0.22466,-0.0487 -0.49051,-0.0487 -0.59161,0 -0.92111,0.41188 -0.3295,0.41188 -0.3295,1.16824 0,0.74512 0.25461,1.13454 0.25462,0.38566 0.81627,0.38566 0.29955,0 0.60658,-0.13105 0.30704,-0.1348 0.57289,-0.34448 z"
         style="font-style:normal;font-variant:normal;font-weight:normal;font-stretch:normal;font-size:7.66842px;font-family:sans-serif;-inkscape-font-specification:sans-serif;stroke-width:0.844236"
         id="path6176"
         inkscape:connector-curvature="0" />
      <path
         d="m -924.40123,375.82646 h -0.7938 v -0.73015 h 0.7938 z m -0.0449,4.88263 h -0.70394 v -4.18244 h 0.70394 z"
         style="font-style:normal;font-variant:normal;font-weight:normal;font-stretch:normal;font-size:7.66842px;font-family:sans-serif;-inkscape-font-specification:sans-serif;stroke-width:0.844236"
         id="path6178"
         inkscape:connector-curvature="0" />
      <path
         d="m -919.48116,378.61974 q 0,1.02221 -0.5242,1.61381 -0.52421,0.59161 -1.40413,0.59161 -0.88741,0 -1.41162,-0.59161 -0.52047,-0.5916 -0.52047,-1.61381 0,-1.02221 0.52047,-1.61381 0.52421,-0.59535 1.41162,-0.59535 0.87992,0 1.40413,0.59535 0.5242,0.5916 0.5242,1.61381 z m -0.7264,0 q 0,-0.81252 -0.31827,-1.20568 -0.31827,-0.3969 -0.88366,-0.3969 -0.57289,0 -0.89116,0.3969 -0.31452,0.39316 -0.31452,1.20568 0,0.78631 0.31827,1.19445 0.31826,0.40439 0.88741,0.40439 0.56165,0 0.87992,-0.40065 0.32201,-0.40439 0.32201,-1.19819 z"
         style="font-style:normal;font-variant:normal;font-weight:normal;font-stretch:normal;font-size:7.66842px;font-family:sans-serif;-inkscape-font-specification:sans-serif;stroke-width:0.844236"
         id="path6180"
         inkscape:connector-curvature="0" />
      <path
         d="m -938.90682,389.6158 q 0,0.32576 -0.15352,0.64403 -0.14977,0.31827 -0.42311,0.53918 -0.29955,0.23964 -0.70019,0.37444 -0.3969,0.13479 -0.95855,0.13479 -0.60284,0 -1.08586,-0.11233 -0.47928,-0.11233 -0.97728,-0.33324 v -0.9286 h 0.0524 q 0.42311,0.35197 0.97728,0.54293 0.55416,0.19096 1.04093,0.19096 0.68895,0 1.07088,-0.25836 0.38567,-0.25836 0.38567,-0.68896 0,-0.37069 -0.18348,-0.54667 -0.17973,-0.17599 -0.55042,-0.27334 -0.28082,-0.0749 -0.61032,-0.12356 -0.32576,-0.0487 -0.69271,-0.12357 -0.74138,-0.15726 -1.10084,-0.53544 -0.35571,-0.38192 -0.35571,-0.99225 0,-0.70019 0.59161,-1.14577 0.5916,-0.44932 1.50148,-0.44932 0.58786,0 1.07837,0.11233 0.49051,0.11233 0.86869,0.27708 v 0.87618 h -0.0524 q -0.31827,-0.2696 -0.83873,-0.44558 -0.51672,-0.17973 -1.05965,-0.17973 -0.59536,0 -0.95856,0.24713 -0.35945,0.24712 -0.35945,0.63654 0,0.34822 0.17972,0.54667 0.17973,0.19845 0.6328,0.30329 0.23964,0.0524 0.68147,0.12731 0.44183,0.0749 0.74887,0.15352 0.62156,0.16475 0.93609,0.498 0.31452,0.33324 0.31452,0.93234 z"
         style="font-style:normal;font-variant:normal;font-weight:normal;font-stretch:normal;font-size:7.66842px;font-family:sans-serif;-inkscape-font-specification:sans-serif;stroke-width:0.844236"
         id="path6182"
         inkscape:connector-curvature="0" />
      <path
         d="m -937.01593,386.32452 h -0.7938 v -0.73015 h 0.7938 z m -0.0449,4.88263 h -0.70394 v -4.18244 h 0.70394 z"
         style="font-style:normal;font-variant:normal;font-weight:normal;font-stretch:normal;font-size:7.66842px;font-family:sans-serif;-inkscape-font-specification:sans-serif;stroke-width:0.844236"
         id="path6184"
         inkscape:connector-curvature="0" />
      <path
         d="m -932.03969,391.20715 h -0.88741 l -1.18696,-1.60633 -1.19444,1.60633 h -0.82001 l 1.63253,-2.0856 -1.61756,-2.09684 h 0.88741 l 1.17947,1.58012 1.18322,-1.58012 h 0.82375 l -1.64377,2.05939 z"
         style="font-style:normal;font-variant:normal;font-weight:normal;font-stretch:normal;font-size:7.66842px;font-family:sans-serif;-inkscape-font-specification:sans-serif;stroke-width:0.844236"
         id="path6186"
         inkscape:connector-curvature="0" />
      <path
         d="m -939.91312,398.65275 q 0,0.37069 -0.13105,0.68896 -0.12731,0.31453 -0.35945,0.54667 -0.28832,0.28832 -0.68148,0.43435 -0.39315,0.14228 -0.99225,0.14228 h -0.74138 v 2.07812 h -0.74138 v -5.57534 h 1.51272 q 0.50174,0 0.84996,0.0861 0.34823,0.0824 0.61782,0.26211 0.31827,0.21343 0.49051,0.5317 0.17598,0.31827 0.17598,0.80503 z m -0.77133,0.0187 q 0,-0.28831 -0.1011,-0.50174 -0.1011,-0.21343 -0.30703,-0.34822 -0.17973,-0.11608 -0.41188,-0.16476 -0.22841,-0.0524 -0.58038,-0.0524 h -0.73389 v 2.22789 h 0.62531 q 0.44932,0 0.73015,-0.0786 0.28082,-0.0824 0.45681,-0.25836 0.17598,-0.17973 0.24712,-0.37818 0.0749,-0.19845 0.0749,-0.44558 z"
         style="font-style:normal;font-variant:normal;font-weight:normal;font-stretch:normal;font-size:7.66842px;font-family:sans-serif;-inkscape-font-specification:sans-serif;stroke-width:0.844236"
         id="path6188"
         inkscape:connector-curvature="0" />
      <path
         d="m -938.27683,402.54313 h -0.70394 v -5.82621 h 0.70394 z"
         style="font-style:normal;font-variant:normal;font-weight:normal;font-stretch:normal;font-size:7.66842px;font-family:sans-serif;-inkscape-font-specification:sans-serif;stroke-width:0.844236"
         id="path6190"
         inkscape:connector-curvature="0" />
      <path
         d="m -933.40919,402.54313 h -0.70393 v -0.4643 q -0.35572,0.28082 -0.68148,0.4306 -0.32575,0.14977 -0.71891,0.14977 -0.659,0 -1.02595,-0.40064 -0.36695,-0.40439 -0.36695,-1.18322 v -2.71465 h 0.70394 v 2.38141 q 0,0.31826 0.03,0.54667 0.03,0.22466 0.1273,0.38567 0.1011,0.16475 0.26211,0.23964 0.161,0.0749 0.46804,0.0749 0.27334,0 0.59535,-0.14228 0.32576,-0.14229 0.60659,-0.3632 v -3.12279 h 0.70393 z"
         style="font-style:normal;font-variant:normal;font-weight:normal;font-stretch:normal;font-size:7.66842px;font-family:sans-serif;-inkscape-font-specification:sans-serif;stroke-width:0.844236"
         id="path6192"
         inkscape:connector-curvature="0" />
      <path
         d="m -929.03579,401.33745 q 0,0.57288 -0.47553,0.93983 -0.47179,0.36694 -1.2918,0.36694 -0.4643,0 -0.85371,-0.10858 -0.38567,-0.11233 -0.64778,-0.24339 v -0.79005 h 0.0374 q 0.33325,0.25087 0.74138,0.40064 0.40813,0.14603 0.78257,0.14603 0.4643,0 0.7264,-0.14977 0.2621,-0.14978 0.2621,-0.47179 0,-0.24713 -0.14228,-0.37443 -0.14229,-0.12731 -0.54668,-0.21718 -0.14977,-0.0337 -0.39315,-0.0786 -0.23964,-0.0449 -0.43809,-0.0974 -0.55042,-0.14603 -0.78257,-0.42686 -0.2284,-0.28457 -0.2284,-0.69644 0,-0.25836 0.10484,-0.48677 0.10858,-0.2284 0.32576,-0.40813 0.20968,-0.17599 0.53169,-0.27708 0.32576,-0.10485 0.72641,-0.10485 0.37443,0 0.75635,0.0936 0.38567,0.0899 0.64029,0.22092 v 0.75261 h -0.0375 q -0.26959,-0.19845 -0.65526,-0.33324 -0.38566,-0.13855 -0.75635,-0.13855 -0.38567,0 -0.65152,0.14978 -0.26585,0.14603 -0.26585,0.43809 0,0.25836 0.16101,0.38941 0.15726,0.13105 0.50923,0.21343 0.19471,0.0449 0.43434,0.0899 0.24339,0.0449 0.40439,0.0824 0.49051,0.11233 0.75636,0.38566 0.26585,0.27709 0.26585,0.7339 z"
         style="font-style:normal;font-variant:normal;font-weight:normal;font-stretch:normal;font-size:7.66842px;font-family:sans-serif;-inkscape-font-specification:sans-serif;stroke-width:0.844236"
         id="path6194"
         inkscape:connector-curvature="0" />
      <path
         d="m -939.25612,406.73596 q 0.34074,0.37443 0.52047,0.91736 0.18347,0.54293 0.18347,1.23189 0,0.68896 -0.18722,1.23564 -0.18347,0.54293 -0.51672,0.90613 -0.34448,0.37818 -0.81626,0.56914 -0.46805,0.19096 -1.07089,0.19096 -0.58786,0 -1.07088,-0.19471 -0.47928,-0.1947 -0.81627,-0.56539 -0.33699,-0.37069 -0.52046,-0.90988 -0.17973,-0.53918 -0.17973,-1.23189 0,-0.68147 0.17973,-1.22065 0.17973,-0.54293 0.52421,-0.9286 0.3295,-0.36695 0.81626,-0.56165 0.49051,-0.19471 1.06714,-0.19471 0.5991,0 1.07463,0.19845 0.47928,0.19471 0.81252,0.55791 z m -0.0674,2.14925 q 0,-1.08586 -0.48677,-1.67372 -0.48676,-0.59161 -1.32924,-0.59161 -0.84997,0 -1.33673,0.59161 -0.48303,0.58786 -0.48303,1.67372 0,1.0971 0.49426,1.68121 0.49425,0.58038 1.3255,0.58038 0.83124,0 1.32175,-0.58038 0.49426,-0.58411 0.49426,-1.68121 z"
         style="font-style:normal;font-variant:normal;font-weight:normal;font-stretch:normal;font-size:7.66842px;font-family:sans-serif;-inkscape-font-specification:sans-serif;stroke-width:0.844236"
         id="path6196"
         inkscape:connector-curvature="0" />
      <path
         d="m -933.9354,411.67101 h -0.70394 v -2.38141 q 0,-0.28831 -0.0337,-0.53918 -0.0337,-0.25462 -0.12357,-0.3969 -0.0936,-0.15727 -0.26959,-0.23215 -0.17599,-0.0786 -0.45681,-0.0786 -0.28832,0 -0.60284,0.14229 -0.31453,0.14228 -0.60284,0.3632 v 3.12279 h -0.70394 v -4.18244 h 0.70394 v 0.4643 q 0.3295,-0.27334 0.68147,-0.42686 0.35197,-0.15351 0.72266,-0.15351 0.67773,0 1.03344,0.40813 0.35571,0.40813 0.35571,1.17572 z"
         style="font-style:normal;font-variant:normal;font-weight:normal;font-stretch:normal;font-size:7.66842px;font-family:sans-serif;-inkscape-font-specification:sans-serif;stroke-width:0.844236"
         id="path6198"
         inkscape:connector-curvature="0" />
      <path
         d="m -929.07899,409.6528 h -3.08159 q 0,0.38567 0.11607,0.67399 0.11608,0.28457 0.31827,0.46804 0.19471,0.17973 0.46056,0.26959 0.26959,0.0899 0.5916,0.0899 0.42686,0 0.85746,-0.1685 0.43434,-0.17224 0.61782,-0.33699 h 0.0374 v 0.76759 q -0.35571,0.14977 -0.7264,0.25087 -0.37069,0.1011 -0.77883,0.1011 -1.04093,0 -1.62504,-0.56165 -0.58412,-0.5654 -0.58412,-1.60258 0,-1.02595 0.55791,-1.62879 0.56165,-0.60284 1.47527,-0.60284 0.84622,0 1.30303,0.49425 0.46055,0.49425 0.46055,1.40413 z m -0.68521,-0.53918 q -0.004,-0.55417 -0.28083,-0.85746 -0.27333,-0.30329 -0.83499,-0.30329 -0.56539,0 -0.90238,0.33325 -0.33325,0.33324 -0.37818,0.8275 z"
         style="font-style:normal;font-variant:normal;font-weight:normal;font-stretch:normal;font-size:7.66842px;font-family:sans-serif;-inkscape-font-specification:sans-serif;stroke-width:0.844236"
         id="path6200"
         inkscape:connector-curvature="0" />
    </g>
    <flowRoot
       xml:space="preserve"
       id="flowRoot4937"
       style="font-style:normal;font-weight:normal;font-size:10.6667px;line-height:1.25;font-family:sans-serif;letter-spacing:0px;word-spacing:0px;fill:#000000;fill-opacity:1;stroke:none;stroke-width:0.88074"
       transform="matrix(0.26458333,0,0,0.26458333,6.6477061,63.816955)"><flowRegion
         id="flowRegion4939"><rect
           id="rect4941"
           width="31.062191"
           height="10.859139"
           x="98.237335"
           y="242.7276" /></flowRegion><flowPara
         id="flowPara4943">color</flowPara></flowRoot>
    <text
       xml:space="preserve"
       style="font-style:normal;font-weight:normal;font-size:2.82223px;line-height:1.25;font-family:sans-serif;letter-spacing:0px;word-spacing:0px;fill:url(#linearGradient11095);fill-opacity:1;stroke:none;stroke-width:0.233029"
       x="8.1449232"
       y="71.311562"
       id="text5506"><tspan
         sodipodi:role="line"
         id="tspan5504"
         x="8.1449232"
         y="71.311562"
         style="font-size:4.93889px;fill:url(#linearGradient11095);fill-opacity:1;stroke-width:0.233029">Band</tspan><tspan
         id="tspan8106"
         sodipodi:role="line"
         x="8.1449232"
         y="77.485176"
         style="font-size:4.93889px;fill:url(#linearGradient11095);fill-opacity:1;stroke-width:0.233029">Split</tspan></text>
    <use
       height="100%"
       width="100%"
       y="0"
       x="0"
       id="use11134"
       transform="matrix(3.87,0,0,3.87,-80.742391,7.2927385)"
       xlink:href="#layer1-4" />
    <use
       height="100%"
       width="100%"
       y="0"
       x="0"
       id="use11161"
       transform="matrix(3.87,0,0,3.87,-129.87243,37.605037)"
       xlink:href="#layer1-3" />
    <use
       xlink:href="#layer1-4"
       transform="matrix(3.8700001,0,0,3.8700001,-80.71249,-9.8451177)"
       id="use11134-6"
       x="0"
       y="0"
       width="100%"
       height="100%" />
    <use
       height="100%"
       width="100%"
       y="0"
       x="0"
       id="use11245"
       transform="matrix(3.87,0,0,3.87,-123.26664,21.910166)"
       xlink:href="#layer1-9" />
    <text
       id="text11261"
       y="84.396576"
       x="7.1942425"
       style="font-size:2.82222px;line-height:1.25;font-family:sans-serif;letter-spacing:0px;word-spacing:0px;stroke-width:0.264583"
       xml:space="preserve"><tspan
         style="font-size:2.82222px;stroke-width:0.264583"
         y="84.396576"
         x="7.1942425"
         id="tspan11259"
         sodipodi:role="line">frequency</tspan></text>
    <path
       id="path11263"
       d="m 14.353104,99.273194 -0.08488,12.961146"
       style="fill:none;stroke:#000000;stroke-width:0.195269px;stroke-linecap:butt;stroke-linejoin:miter;stroke-opacity:1" />
    <text
       xml:space="preserve"
       style="font-size:2.82223px;line-height:1.25;font-family:sans-serif;letter-spacing:0px;word-spacing:0px;stroke-width:0.264583"
       x="14.202939"
       y="128.05283"
       id="text11261-7"><tspan
         sodipodi:role="line"
         id="tspan11259-0"
         x="14.202939"
         y="128.05283"
         style="font-size:2.82223px;text-align:center;text-anchor:middle;stroke-width:0.264583">in</tspan></text>
    <rect
       y="145.83778"
       x="8.9760437"
       height="10.535396"
       width="10.583327"
       id="rect5287-6"
       style="fill:url(#linearGradient5496-9);fill-opacity:1;stroke-width:0.321106" />
    <g
       id="text4973-0"
       style="font-style:normal;font-weight:normal;font-size:10.2246px;line-height:1.25;font-family:sans-serif;letter-spacing:0px;word-spacing:0px;fill:#000000;fill-opacity:1;stroke:none;stroke-width:0.844236"
       aria-label="out"
       transform="matrix(0.27602378,0,0,0.27602378,259.10471,28.38387)" />
    <text
       id="text11261-7-1"
       y="145.25075"
       x="14.255994"
       style="font-size:2.82223px;line-height:1.25;font-family:sans-serif;letter-spacing:0px;word-spacing:0px;stroke-width:0.264583"
       xml:space="preserve"><tspan
         style="font-size:2.82223px;text-align:center;text-anchor:middle;stroke-width:0.264583"
         y="145.25075"
         x="14.255994"
         id="tspan11259-0-8"
         sodipodi:role="line">hi</tspan></text>
    <text
       id="text11261-7-7"
       y="163.82945"
       x="14.255994"
       style="font-size:2.82223px;line-height:1.25;font-family:sans-serif;letter-spacing:0px;word-spacing:0px;stroke-width:0.264583"
       xml:space="preserve"><tspan
         style="font-size:2.82223px;text-align:center;text-anchor:middle;stroke-width:0.264583"
         y="163.82945"
         x="14.255994"
         id="tspan11259-0-9"
         sodipodi:role="line">low</tspan></text>
    <use
       xlink:href="#layer1-4"
       transform="matrix(3.8700001,0,0,3.8700001,-80.742393,24.490652)"
       id="use11134-2"
       x="0"
       y="0"
       width="100%"
       height="100%" />
    <use
       xlink:href="#layer1-4"
       transform="matrix(3.8700001,0,0,3.8700001,-80.742393,43.011485)"
       id="use11134-0"
       x="0"
       y="0"
       width="100%"
       height="100%" />
  </g>
  <g
     style="display:none"
     transform="matrix(0.27602379,0,0,0.27602379,301.3314,-11.754987)"
     inkscape:label="components"
     id="layer2"
     inkscape:groupmode="layer">
    <text
       id="text1787"
       y="273.28104"
       x="-1010.2094"
       style="font-style:normal;font-weight:normal;font-size:10.2246px;line-height:1.25;font-family:sans-serif;letter-spacing:0px;word-spacing:0px;fill:#000000;fill-opacity:1;stroke:none;stroke-width:0.958553"
       xml:space="preserve" />
    <circle
       inkscape:label="MODE"
       r="3.9687498"
       cy="106.32738"
       cx="-21.133543"
       id="path1587-8-0-3-3"
       style="display:inline;opacity:1;fill:url(#linearGradient1739);fill-opacity:1;stroke-width:0.264583"
       transform="matrix(3.6228762,0,0,3.6228762,-1115.7702,-188.61406)" />
    <circle
       inkscape:label="MODE"
       r="3.9687498"
       cy="116.91071"
       cx="-21.133543"
       id="path1587-8-0-3-6"
       style="display:inline;opacity:1;fill:url(#linearGradient1763);fill-opacity:1;stroke-width:0.264583"
       transform="matrix(3.6228762,0,0,3.6228762,-1115.7702,-188.61406)" />
    <circle
       inkscape:label="MAIN"
       r="14.378289"
       cy="119.91261"
       cx="-1192.3344"
       id="path1587-8-2"
       style="display:inline;opacity:1;fill:url(#linearGradient1751);fill-opacity:1;stroke-width:0.958553"
       transform="translate(-2.9435869e-5)" />
    <circle
       inkscape:label="MAIN"
       r="14.378289"
       cy="158.25471"
       cx="-1192.3344"
       id="path1389"
       style="display:inline;opacity:1;fill:url(#linearGradient1757);fill-opacity:1;stroke-width:0.958553"
       transform="translate(-2.9435869e-5)" />
    <circle
       inkscape:label="MODE"
       r="14.378289"
       cy="81.570503"
       cx="-1192.3344"
       id="path1587-8-0-3"
       style="display:inline;opacity:1;fill:url(#linearGradient1745);fill-opacity:1;stroke-width:0.958553"
       transform="translate(-2.9435869e-5)" />
    <text
       id="text1767"
       y="85.259933"
       x="-1159.7885"
       style="font-style:normal;font-weight:normal;font-size:10.2246px;line-height:1.25;font-family:sans-serif;letter-spacing:0px;word-spacing:0px;fill:#000000;fill-opacity:1;stroke:none;stroke-width:0.958553"
       xml:space="preserve"
       transform="translate(-2.9435869e-5)"><tspan
         style="stroke-width:0.958553"
         y="85.259933"
         x="-1159.7885"
         id="tspan1765"
         sodipodi:role="line">Param</tspan></text>
    <text
       id="text1771"
       y="123.53215"
       x="-1159.7885"
       style="font-style:normal;font-weight:normal;font-size:10.2246px;line-height:1.25;font-family:sans-serif;letter-spacing:0px;word-spacing:0px;fill:#000000;fill-opacity:1;stroke:none;stroke-width:0.958553"
       xml:space="preserve"
       transform="translate(-2.9435869e-5)"><tspan
         style="stroke-width:0.958553"
         y="123.53215"
         x="-1159.7885"
         id="tspan1769"
         sodipodi:role="line">Input</tspan></text>
    <text
       id="text1775"
       y="160.9207"
       x="-1159.359"
       style="font-style:normal;font-weight:normal;font-size:10.2246px;line-height:1.25;font-family:sans-serif;letter-spacing:0px;word-spacing:0px;fill:#000000;fill-opacity:1;stroke:none;stroke-width:0.958553"
       xml:space="preserve"
       transform="translate(-2.9435869e-5)"><tspan
         style="stroke-width:0.958553"
         y="160.9207"
         x="-1159.359"
         id="tspan1773"
         sodipodi:role="line">Output</tspan></text>
    <text
       id="text1779"
       y="199.2628"
       x="-1159.7885"
       style="font-style:normal;font-weight:normal;font-size:10.2246px;line-height:1.25;font-family:sans-serif;letter-spacing:0px;word-spacing:0px;fill:#000000;fill-opacity:1;stroke:none;stroke-width:0.958553"
       xml:space="preserve"
       transform="translate(-2.9435869e-5)"><tspan
         style="stroke-width:0.958553"
         y="199.2628"
         x="-1159.7885"
         id="tspan1777"
         sodipodi:role="line">Light</tspan></text>
    <text
       id="text1783"
       y="237.66982"
       x="-1159.3491"
       style="font-style:normal;font-weight:normal;font-size:10.2246px;line-height:1.25;font-family:sans-serif;letter-spacing:0px;word-spacing:0px;fill:#000000;fill-opacity:1;stroke:none;stroke-width:0.958553"
       xml:space="preserve"
       transform="translate(-2.9435869e-5)"><tspan
         style="stroke-width:0.958553"
         y="237.66982"
         x="-1159.3491"
         id="tspan1781"
         sodipodi:role="line">Custom</tspan></text>
  </g>
</svg>
