<?xml version="1.0" encoding="UTF-8" standalone="no"?>
<svg
   xmlns:osb="http://www.openswatchbook.org/uri/2009/osb"
   xmlns:dc="http://purl.org/dc/elements/1.1/"
   xmlns:cc="http://creativecommons.org/ns#"
   xmlns:rdf="http://www.w3.org/1999/02/22-rdf-syntax-ns#"
   xmlns:svg="http://www.w3.org/2000/svg"
   xmlns="http://www.w3.org/2000/svg"
   xmlns:xlink="http://www.w3.org/1999/xlink"
   xmlns:sodipodi="http://sodipodi.sourceforge.net/DTD/sodipodi-0.dtd"
   xmlns:inkscape="http://www.inkscape.org/namespaces/inkscape"
   inkscape:export-ydpi="100.2962"
   inkscape:export-xdpi="100.2962"
   inkscape:export-filename="/home/curlymorphic/dev/VCVModuleIdeas/res/mix.png"
   inkscape:version="1.0 (947b245b96, 2020-05-01)"
   sodipodi:docname="mix.svg"
   id="svg4541"
   version="1.1"
   viewBox="0 0 15.24 128.50002"
   height="128.5mm"
   width="15.24mm">
  <title
     id="title4354">SSPO 3HP template</title>
  <defs
     id="defs4535">
    <linearGradient
       osb:paint="solid"
       id="linearGradient1761">
      <stop
         id="stop1759"
         offset="0"
         style="stop-color:#ffff00;stop-opacity:1;" />
    </linearGradient>
    <linearGradient
       osb:paint="solid"
       id="linearGradient1755">
      <stop
         id="stop1753"
         offset="0"
         style="stop-color:#0000ff;stop-opacity:1;" />
    </linearGradient>
    <linearGradient
       osb:paint="solid"
       id="linearGradient1749">
      <stop
         id="stop1747"
         offset="0"
         style="stop-color:#00ff00;stop-opacity:1;" />
    </linearGradient>
    <linearGradient
       osb:paint="solid"
       id="linearGradient1743">
      <stop
         id="stop1741"
         offset="0"
         style="stop-color:#ff0000;stop-opacity:1;" />
    </linearGradient>
    <linearGradient
       osb:paint="solid"
       id="linearGradient1737">
      <stop
         id="stop1735"
         offset="0"
         style="stop-color:#ff00ff;stop-opacity:1;" />
    </linearGradient>
    <linearGradient
       osb:paint="solid"
       id="linearGradient1686">
      <stop
         id="stop1684"
         offset="0"
         style="stop-color:#000000;stop-opacity:1;" />
    </linearGradient>
    <linearGradient
       osb:paint="solid"
       id="linearGradient5500">
      <stop
         id="stop5498"
         offset="0"
         style="stop-color:#f0f0f0;stop-opacity:1;" />
    </linearGradient>
    <linearGradient
       osb:paint="solid"
       id="linearGradient5494">
      <stop
         id="stop5492"
         offset="0"
         style="stop-color:#cdde87;stop-opacity:1;" />
    </linearGradient>
    <linearGradient
       gradientTransform="matrix(0.27602379,0,0,0.27602379,258.97098,49.777249)"
       gradientUnits="userSpaceOnUse"
       y2="444.60522"
       x2="-867.84308"
       y1="444.60522"
       x1="-906.18518"
       id="linearGradient5496"
       xlink:href="#linearGradient5494"
       inkscape:collect="always" />
    <linearGradient
       gradientTransform="matrix(0.05150635,0,0,0.27616015,57.827317,53.733312)"
       gradientUnits="userSpaceOnUse"
       y2="269.14816"
       x2="-697.97778"
       y1="269.14816"
       x1="-993.65643"
       id="linearGradient5502"
       xlink:href="#linearGradient5500"
       inkscape:collect="always" />
    <linearGradient
       gradientTransform="translate(-78.56246,3.8129713)"
       gradientUnits="userSpaceOnUse"
       y2="102.5144"
       x2="61.397667"
       y1="102.5144"
       x1="53.460167"
       id="linearGradient1739"
       xlink:href="#linearGradient1737"
       inkscape:collect="always" />
    <linearGradient
       gradientTransform="translate(-347.945,-105.93461)"
       gradientUnits="userSpaceOnUse"
       y2="187.50511"
       x2="-830.01111"
       y1="187.50511"
       x1="-858.7677"
       id="linearGradient1745"
       xlink:href="#linearGradient1743"
       inkscape:collect="always" />
    <linearGradient
       gradientTransform="translate(-232.91854,-139.48393)"
       gradientUnits="userSpaceOnUse"
       y2="259.39655"
       x2="-945.03748"
       y1="259.39655"
       x1="-973.79407"
       id="linearGradient1751"
       xlink:href="#linearGradient1749"
       inkscape:collect="always" />
    <linearGradient
       gradientTransform="translate(-347.945,-101.14182)"
       gradientUnits="userSpaceOnUse"
       y2="259.39655"
       x2="-830.01111"
       y1="259.39655"
       x1="-858.7677"
       id="linearGradient1757"
       xlink:href="#linearGradient1755"
       inkscape:collect="always" />
    <linearGradient
       gradientTransform="translate(-78.295192,-19.814195)"
       gradientUnits="userSpaceOnUse"
       y2="136.7249"
       x2="61.130398"
       y1="136.7249"
       x1="53.192898"
       id="linearGradient1763"
       xlink:href="#linearGradient1761"
       inkscape:collect="always" />
    <symbol
       id="g29375">
      <rect
         y="46.927307"
         x="11.031173"
         height="0.44108537"
         width="4.0315108"
         id="rect5276-3"
         style="fill:#cdde87;fill-opacity:1;stroke-width:0.0472871" />
      <g
         aria-label="Studio Six Plus One"
         style="font-style:normal;font-variant:normal;font-weight:bold;font-stretch:normal;font-size:12.7807px;line-height:1.25;font-family:sans-serif;-inkscape-font-specification:'sans-serif Bold';letter-spacing:0px;word-spacing:0px;fill:#000000;fill-opacity:1;stroke:none;stroke-width:0.844236"
         id="text5967-7-1-3-6"
         transform="matrix(0,-0.27602378,0.3524041,0,-23.499983,-22.094702)">
        <path
           d="m -248.42999,100.30824 q 0,0.0862 -0.0406,0.17039 -0.0396,0.0842 -0.11195,0.14266 -0.0793,0.0634 -0.18526,0.0991 -0.10502,0.0357 -0.25362,0.0357 -0.1595,0 -0.2873,-0.0297 -0.12681,-0.0297 -0.25857,-0.0882 v -0.2457 h 0.0139 q 0.11194,0.0931 0.25857,0.14365 0.14662,0.0505 0.27541,0.0505 0.18229,0 0.28333,-0.0684 0.10205,-0.0684 0.10205,-0.18229 0,-0.0981 -0.0485,-0.14464 -0.0476,-0.0466 -0.14563,-0.0723 -0.0743,-0.0198 -0.16148,-0.0327 -0.0862,-0.0129 -0.18328,-0.0327 -0.19616,-0.0416 -0.29126,-0.141672 -0.0941,-0.101049 -0.0941,-0.262532 0,-0.185259 0.15653,-0.303152 0.15653,-0.118883 0.39727,-0.118883 0.15554,0 0.28532,0.02972 0.12978,0.02972 0.22984,0.07331 v 0.231822 h -0.0139 q -0.0842,-0.07133 -0.22191,-0.117893 -0.13672,-0.04755 -0.28037,-0.04755 -0.15752,0 -0.25361,0.06539 -0.0951,0.06538 -0.0951,0.168418 0,0.09213 0.0476,0.14464 0.0476,0.05251 0.16743,0.08024 0.0634,0.01386 0.18031,0.03368 0.1169,0.01982 0.19814,0.04062 0.16445,0.04359 0.24767,0.131762 0.0832,0.0882 0.0832,0.24669 z"
           style="font-style:normal;font-variant:normal;font-weight:normal;font-stretch:normal;font-size:7.66842px;font-family:sans-serif;-inkscape-font-specification:sans-serif;stroke-width:0.223371"
           id="path6170-5"
           inkscape:connector-curvature="0" />
        <path
           d="m -247.55521,100.71937 q -0.0525,0.0139 -0.11492,0.0228 -0.0614,0.009 -0.10997,0.009 -0.16941,0 -0.25758,-0.0911 -0.0882,-0.0911 -0.0882,-0.29225 v -0.588469 h -0.12582 v -0.15653 h 0.12582 V 99.30466 h 0.18625 v 0.318011 h 0.38439 v 0.15653 h -0.38439 v 0.504259 q 0,0.0872 0.004,0.13672 0.004,0.0485 0.0277,0.0911 0.0218,0.0396 0.0594,0.0585 0.0386,0.0178 0.1169,0.0178 0.0456,0 0.0951,-0.0129 0.0495,-0.0139 0.0713,-0.0228 h 0.01 z"
           style="font-style:normal;font-variant:normal;font-weight:normal;font-stretch:normal;font-size:7.66842px;font-family:sans-serif;-inkscape-font-specification:sans-serif;stroke-width:0.223371"
           id="path6172-0"
           inkscape:connector-curvature="0" />
        <path
           d="m -246.41196,100.72928 h -0.18625 v -0.12285 q -0.0941,0.0743 -0.1803,0.11393 -0.0862,0.0396 -0.19021,0.0396 -0.17437,0 -0.27145,-0.106 -0.0971,-0.107 -0.0971,-0.31306 v -0.718254 h 0.18625 v 0.630084 q 0,0.0842 0.008,0.14464 0.008,0.0594 0.0337,0.10204 0.0267,0.0436 0.0694,0.0634 0.0426,0.0198 0.12384,0.0198 0.0723,0 0.15752,-0.0376 0.0862,-0.0376 0.16049,-0.0961 v -0.826239 h 0.18625 z"
           style="font-style:normal;font-variant:normal;font-weight:normal;font-stretch:normal;font-size:7.66842px;font-family:sans-serif;-inkscape-font-specification:sans-serif;stroke-width:0.223371"
           id="path6174-1"
           inkscape:connector-curvature="0" />
        <path
           d="m -245.14783,100.72928 h -0.18625 v -0.11591 q -0.0803,0.0694 -0.16743,0.10798 -0.0872,0.0386 -0.18922,0.0386 -0.19814,0 -0.31504,-0.15257 -0.11591,-0.15256 -0.11591,-0.42302 0,-0.14068 0.0396,-0.250645 0.0406,-0.109969 0.10898,-0.187243 0.0674,-0.07529 0.15653,-0.114919 0.0901,-0.03963 0.18625,-0.03963 0.0872,0 0.15455,0.01881 0.0674,0.01783 0.14167,0.05647 v -0.479497 h 0.18625 z m -0.18625,-0.27244 v -0.635036 q -0.0753,-0.03368 -0.13474,-0.04656 -0.0594,-0.01288 -0.12978,-0.01288 -0.15653,0 -0.24371,0.108976 -0.0872,0.108977 -0.0872,0.3091 0,0.19715 0.0674,0.30018 0.0674,0.10204 0.21597,0.10204 0.0793,0 0.16049,-0.0347 0.0812,-0.0357 0.15158,-0.0911 z"
           style="font-style:normal;font-variant:normal;font-weight:normal;font-stretch:normal;font-size:7.66842px;font-family:sans-serif;-inkscape-font-specification:sans-serif;stroke-width:0.223371"
           id="path6176-5"
           inkscape:connector-curvature="0" />
        <path
           d="m -244.58116,99.437418 h -0.21003 v -0.193186 h 0.21003 z m -0.0119,1.291862 h -0.18625 v -1.106604 h 0.18625 z"
           style="font-style:normal;font-variant:normal;font-weight:normal;font-stretch:normal;font-size:7.66842px;font-family:sans-serif;-inkscape-font-specification:sans-serif;stroke-width:0.223371"
           id="path6178-8"
           inkscape:connector-curvature="0" />
        <path
           d="m -243.27939,100.17647 q 0,0.27046 -0.13869,0.42699 -0.1387,0.15653 -0.37151,0.15653 -0.2348,0 -0.3735,-0.15653 -0.1377,-0.15653 -0.1377,-0.42699 0,-0.270457 0.1377,-0.426984 0.1387,-0.15752 0.3735,-0.15752 0.23281,0 0.37151,0.15752 0.13869,0.156527 0.13869,0.426984 z m -0.19219,0 q 0,-0.214976 -0.0842,-0.319 -0.0842,-0.105013 -0.2338,-0.105013 -0.15158,0 -0.23579,0.105013 -0.0832,0.104024 -0.0832,0.319 0,0.20805 0.0842,0.31603 0.0842,0.107 0.2348,0.107 0.1486,0 0.23281,-0.10601 0.0852,-0.10699 0.0852,-0.31702 z"
           style="font-style:normal;font-variant:normal;font-weight:normal;font-stretch:normal;font-size:7.66842px;font-family:sans-serif;-inkscape-font-specification:sans-serif;stroke-width:0.223371"
           id="path6180-6"
           inkscape:connector-curvature="0" />
        <path
           d="m -248.4191,103.08585 q 0,0.0862 -0.0406,0.1704 -0.0396,0.0842 -0.11195,0.14265 -0.0793,0.0634 -0.18526,0.0991 -0.10501,0.0357 -0.25362,0.0357 -0.1595,0 -0.2873,-0.0297 -0.12681,-0.0297 -0.25857,-0.0882 v -0.24569 h 0.0139 q 0.11195,0.0931 0.25858,0.14365 0.14662,0.0505 0.27541,0.0505 0.18228,0 0.28334,-0.0684 0.10204,-0.0683 0.10204,-0.18228 0,-0.0981 -0.0486,-0.14464 -0.0476,-0.0466 -0.14563,-0.0723 -0.0743,-0.0198 -0.16148,-0.0327 -0.0862,-0.0129 -0.18328,-0.0327 -0.19616,-0.0416 -0.29126,-0.14167 -0.0941,-0.10105 -0.0941,-0.26253 0,-0.18526 0.15653,-0.30315 0.15653,-0.11889 0.39727,-0.11889 0.15554,0 0.28532,0.0297 0.12978,0.0297 0.22984,0.0733 v 0.23183 h -0.0139 q -0.0842,-0.0713 -0.22191,-0.1179 -0.13672,-0.0476 -0.28037,-0.0476 -0.15752,0 -0.25362,0.0654 -0.0951,0.0654 -0.0951,0.16841 0,0.0921 0.0476,0.14464 0.0476,0.0525 0.16743,0.0802 0.0634,0.0139 0.1803,0.0337 0.11691,0.0198 0.19814,0.0406 0.16446,0.0436 0.24768,0.13177 0.0832,0.0882 0.0832,0.24668 z"
           style="font-style:normal;font-variant:normal;font-weight:normal;font-stretch:normal;font-size:7.66842px;font-family:sans-serif;-inkscape-font-specification:sans-serif;stroke-width:0.223371"
           id="path6182-0"
           inkscape:connector-curvature="0" />
        <path
           d="m -247.9188,102.21503 h -0.21002 v -0.19319 h 0.21002 z m -0.0119,1.29186 h -0.18625 v -1.1066 h 0.18625 z"
           style="font-style:normal;font-variant:normal;font-weight:normal;font-stretch:normal;font-size:7.66842px;font-family:sans-serif;-inkscape-font-specification:sans-serif;stroke-width:0.223371"
           id="path6184-1"
           inkscape:connector-curvature="0" />
        <path
           d="m -246.60217,103.50689 h -0.23479 l -0.31405,-0.42501 -0.31603,0.42501 h -0.21696 l 0.43194,-0.55181 -0.42798,-0.55479 h 0.23479 l 0.31207,0.41807 0.31306,-0.41807 h 0.21795 l -0.43491,0.54488 z"
           style="font-style:normal;font-variant:normal;font-weight:normal;font-stretch:normal;font-size:7.66842px;font-family:sans-serif;-inkscape-font-specification:sans-serif;stroke-width:0.223371"
           id="path6186-0"
           inkscape:connector-curvature="0" />
        <path
           d="m -248.68535,105.47687 q 0,0.0981 -0.0347,0.18229 -0.0337,0.0832 -0.0951,0.14464 -0.0763,0.0763 -0.18031,0.11492 -0.10402,0.0377 -0.26254,0.0377 h -0.19615 v 0.54983 h -0.19616 v -1.47514 h 0.40024 q 0.13275,0 0.22489,0.0228 0.0921,0.0218 0.16346,0.0694 0.0842,0.0565 0.12978,0.14068 0.0466,0.0842 0.0466,0.213 z m -0.20408,0.005 q 0,-0.0763 -0.0267,-0.13275 -0.0267,-0.0565 -0.0812,-0.0921 -0.0476,-0.0307 -0.10898,-0.0436 -0.0604,-0.0139 -0.15356,-0.0139 h -0.19417 v 0.58946 h 0.16544 q 0.11889,0 0.19319,-0.0208 0.0743,-0.0218 0.12086,-0.0684 0.0466,-0.0476 0.0654,-0.10006 0.0198,-0.0525 0.0198,-0.1179 z"
           style="font-style:normal;font-variant:normal;font-weight:normal;font-stretch:normal;font-size:7.66842px;font-family:sans-serif;-inkscape-font-specification:sans-serif;stroke-width:0.223371"
           id="path6188-7"
           inkscape:connector-curvature="0" />
        <path
           d="m -248.25241,106.5062 h -0.18625 v -1.54151 h 0.18625 z"
           style="font-style:normal;font-variant:normal;font-weight:normal;font-stretch:normal;font-size:7.66842px;font-family:sans-serif;-inkscape-font-specification:sans-serif;stroke-width:0.223371"
           id="path6190-1"
           inkscape:connector-curvature="0" />
        <path
           d="m -246.96451,106.5062 h -0.18625 v -0.12284 q -0.0941,0.0743 -0.18031,0.11393 -0.0862,0.0396 -0.19021,0.0396 -0.17436,0 -0.27145,-0.106 -0.0971,-0.10699 -0.0971,-0.31306 v -0.71825 h 0.18625 v 0.63008 q 0,0.0842 0.008,0.14464 0.008,0.0594 0.0337,0.10204 0.0267,0.0436 0.0693,0.0634 0.0426,0.0198 0.12383,0.0198 0.0723,0 0.15752,-0.0376 0.0862,-0.0376 0.1605,-0.0961 v -0.82624 h 0.18625 z"
           style="font-style:normal;font-variant:normal;font-weight:normal;font-stretch:normal;font-size:7.66842px;font-family:sans-serif;-inkscape-font-specification:sans-serif;stroke-width:0.223371"
           id="path6192-7"
           inkscape:connector-curvature="0" />
        <path
           d="m -245.80739,106.1872 q 0,0.15157 -0.12581,0.24866 -0.12483,0.0971 -0.34179,0.0971 -0.12285,0 -0.22588,-0.0287 -0.10204,-0.0297 -0.17139,-0.0644 v -0.20903 h 0.01 q 0.0882,0.0664 0.19616,0.106 0.10799,0.0386 0.20706,0.0386 0.12284,0 0.19219,-0.0396 0.0693,-0.0396 0.0693,-0.12482 0,-0.0654 -0.0376,-0.0991 -0.0377,-0.0337 -0.14464,-0.0575 -0.0396,-0.009 -0.10402,-0.0208 -0.0634,-0.0119 -0.11591,-0.0258 -0.14564,-0.0386 -0.20706,-0.11294 -0.0604,-0.0753 -0.0604,-0.18427 0,-0.0684 0.0277,-0.12879 0.0287,-0.0604 0.0862,-0.10798 0.0555,-0.0466 0.14068,-0.0733 0.0862,-0.0277 0.19219,-0.0277 0.0991,0 0.20012,0.0248 0.10204,0.0238 0.16941,0.0584 v 0.19913 h -0.01 q -0.0713,-0.0525 -0.17337,-0.0882 -0.10204,-0.0367 -0.20012,-0.0367 -0.10204,0 -0.17238,0.0396 -0.0703,0.0386 -0.0703,0.11591 0,0.0684 0.0426,0.10303 0.0416,0.0347 0.13473,0.0565 0.0515,0.0119 0.11492,0.0238 0.0644,0.0119 0.107,0.0218 0.12978,0.0297 0.20012,0.10204 0.0703,0.0733 0.0703,0.19418 z"
           style="font-style:normal;font-variant:normal;font-weight:normal;font-stretch:normal;font-size:7.66842px;font-family:sans-serif;-inkscape-font-specification:sans-serif;stroke-width:0.223371"
           id="path6194-0"
           inkscape:connector-curvature="0" />
        <path
           d="m -248.51152,107.61556 q 0.0902,0.0991 0.13771,0.24271 0.0486,0.14365 0.0486,0.32594 0,0.18229 -0.0495,0.32693 -0.0485,0.14365 -0.13672,0.23975 -0.0911,0.10006 -0.21596,0.15058 -0.12384,0.0505 -0.28334,0.0505 -0.15554,0 -0.28334,-0.0515 -0.12681,-0.0515 -0.21597,-0.14959 -0.0892,-0.0981 -0.13771,-0.24074 -0.0476,-0.14266 -0.0476,-0.32594 0,-0.1803 0.0476,-0.32296 0.0476,-0.14365 0.1387,-0.24569 0.0872,-0.0971 0.21597,-0.14861 0.12978,-0.0515 0.28235,-0.0515 0.15851,0 0.28433,0.0525 0.12681,0.0515 0.21497,0.14762 z m -0.0178,0.56865 q 0,-0.2873 -0.12879,-0.44284 -0.12879,-0.15653 -0.35169,-0.15653 -0.22489,0 -0.35368,0.15653 -0.1278,0.15554 -0.1278,0.44284 0,0.29028 0.13077,0.44482 0.13077,0.15356 0.35071,0.15356 0.21993,0 0.34971,-0.15356 0.13077,-0.15454 0.13077,-0.44482 z"
           style="font-style:normal;font-variant:normal;font-weight:normal;font-stretch:normal;font-size:7.66842px;font-family:sans-serif;-inkscape-font-specification:sans-serif;stroke-width:0.223371"
           id="path6196-3"
           inkscape:connector-curvature="0" />
        <path
           d="m -247.10374,108.92129 h -0.18625 v -0.63008 q 0,-0.0763 -0.009,-0.14266 -0.009,-0.0674 -0.0327,-0.10501 -0.0248,-0.0416 -0.0713,-0.0614 -0.0466,-0.0208 -0.12087,-0.0208 -0.0763,0 -0.1595,0.0376 -0.0832,0.0376 -0.1595,0.0961 v 0.82624 h -0.18625 v -1.10661 h 0.18625 v 0.12285 q 0.0872,-0.0723 0.18031,-0.11294 0.0931,-0.0406 0.1912,-0.0406 0.17932,0 0.27343,0.10799 0.0941,0.10798 0.0941,0.31107 z"
           style="font-style:normal;font-variant:normal;font-weight:normal;font-stretch:normal;font-size:7.66842px;font-family:sans-serif;-inkscape-font-specification:sans-serif;stroke-width:0.223371"
           id="path6198-9"
           inkscape:connector-curvature="0" />
        <path
           d="m -245.81882,108.3873 h -0.81533 q 0,0.10205 0.0307,0.17833 0.0307,0.0753 0.0842,0.12384 0.0515,0.0476 0.12185,0.0713 0.0713,0.0238 0.15653,0.0238 0.11294,0 0.22687,-0.0446 0.11492,-0.0456 0.16346,-0.0892 h 0.01 v 0.20309 q -0.0941,0.0396 -0.19219,0.0664 -0.0981,0.0268 -0.20607,0.0268 -0.27541,0 -0.42996,-0.1486 -0.15455,-0.1496 -0.15455,-0.42402 0,-0.27145 0.14762,-0.43095 0.1486,-0.1595 0.39033,-0.1595 0.2239,0 0.34476,0.13077 0.12185,0.13077 0.12185,0.37151 z m -0.18129,-0.14265 q -0.001,-0.14663 -0.0743,-0.22687 -0.0723,-0.0803 -0.22093,-0.0803 -0.14959,0 -0.23875,0.0882 -0.0882,0.0882 -0.10006,0.21895 z"
           style="font-style:normal;font-variant:normal;font-weight:normal;font-stretch:normal;font-size:7.66842px;font-family:sans-serif;-inkscape-font-specification:sans-serif;stroke-width:0.223371"
           id="path6200-8"
           inkscape:connector-curvature="0" />
      </g>
    </symbol>
    <symbol
       id="g31551">
      <use
         xlink:href="#layer1-3"
         id="use22813"
         transform="translate(-10.552545,39.467338)"
         x="0"
         y="0"
         width="100%"
         height="100%" />
      <g
         id="text5967"
         style="font-style:normal;font-variant:normal;font-weight:bold;font-stretch:normal;font-size:12.7807px;line-height:1.25;font-family:sans-serif;-inkscape-font-specification:'sans-serif Bold';letter-spacing:0px;word-spacing:0px;display:inline;fill:#000000;fill-opacity:1;stroke:none;stroke-width:0.844236"
         aria-label="V/oct"
         transform="matrix(0.43423599,0,0,0.35444393,129.33848,36.459067)">
        <path
           id="path6107"
           style="font-style:normal;font-variant:normal;font-weight:normal;font-stretch:normal;font-size:7.66842px;font-family:sans-serif;-inkscape-font-specification:sans-serif;stroke-width:0.223371"
           d="m -256.80436,49.895416 -0.53696,1.475139 h -0.26154 l -0.53695,-1.475139 h 0.21002 l 0.46266,1.297808 0.46265,-1.297808 z"
           inkscape:connector-curvature="0" />
        <path
           id="path6109"
           style="font-style:normal;font-variant:normal;font-weight:normal;font-stretch:normal;font-size:7.66842px;font-family:sans-serif;-inkscape-font-specification:sans-serif;stroke-width:0.223371"
           d="m -255.92661,49.82904 -0.71033,1.842685 h -0.17138 l 0.70735,-1.842685 z"
           inkscape:connector-curvature="0" />
        <path
           id="path6111"
           style="font-style:normal;font-variant:normal;font-weight:normal;font-stretch:normal;font-size:7.66842px;font-family:sans-serif;-inkscape-font-specification:sans-serif;stroke-width:0.223371"
           d="m -254.72886,50.817751 q 0,0.270457 -0.1387,0.426987 -0.1387,0.15653 -0.37151,0.15653 -0.23479,0 -0.37349,-0.15653 -0.13771,-0.15653 -0.13771,-0.426987 0,-0.27046 0.13771,-0.42699 0.1387,-0.15752 0.37349,-0.15752 0.23281,0 0.37151,0.15752 0.1387,0.15653 0.1387,0.42699 z m -0.1922,0 q 0,-0.214982 -0.0842,-0.319003 -0.0842,-0.105013 -0.2338,-0.105013 -0.15157,0 -0.23578,0.105013 -0.0832,0.104021 -0.0832,0.319003 0,0.208044 0.0842,0.316029 0.0842,0.106995 0.23479,0.106995 0.1486,0 0.23281,-0.106003 0.0852,-0.106995 0.0852,-0.317021 z"
           inkscape:connector-curvature="0" />
        <path
           id="path6113"
           style="font-style:normal;font-variant:normal;font-weight:normal;font-stretch:normal;font-size:7.66842px;font-family:sans-serif;-inkscape-font-specification:sans-serif;stroke-width:0.223371"
           d="m -253.62127,51.301208 q -0.0931,0.04458 -0.17733,0.06935 -0.0832,0.02476 -0.17734,0.02476 -0.11987,0 -0.21993,-0.03467 -0.10006,-0.03567 -0.17139,-0.106995 -0.0723,-0.07133 -0.11195,-0.180306 -0.0396,-0.108976 -0.0396,-0.254608 0,-0.271449 0.14861,-0.425998 0.14959,-0.154546 0.39429,-0.154546 0.0951,0 0.18625,0.02675 0.0921,0.02675 0.16842,0.06539 v 0.207055 h -0.01 q -0.0852,-0.06638 -0.17634,-0.102042 -0.0901,-0.03567 -0.17634,-0.03567 -0.15851,0 -0.25065,0.106995 -0.0911,0.106005 -0.0911,0.312068 0,0.20012 0.0892,0.308104 0.0901,0.106995 0.25263,0.106995 0.0565,0 0.11492,-0.01487 0.0584,-0.01487 0.10501,-0.03864 0.0406,-0.0208 0.0763,-0.04359 0.0357,-0.02379 0.0565,-0.04062 h 0.01 z"
           inkscape:connector-curvature="0" />
        <path
           id="path6115"
           style="font-style:normal;font-variant:normal;font-weight:normal;font-stretch:normal;font-size:7.66842px;font-family:sans-serif;-inkscape-font-specification:sans-serif;stroke-width:0.223371"
           d="m -252.80692,51.360649 q -0.0525,0.01386 -0.11492,0.02278 -0.0614,0.0089 -0.10997,0.0089 -0.16941,0 -0.25758,-0.09114 -0.0882,-0.09114 -0.0882,-0.292254 v -0.588473 h -0.12582 v -0.156527 h 0.12582 v -0.318013 h 0.18625 v 0.318013 h 0.38439 v 0.156527 h -0.38439 v 0.504264 q 0,0.08718 0.004,0.136716 0.004,0.04854 0.0277,0.09114 0.0218,0.03963 0.0594,0.05845 0.0386,0.01783 0.1169,0.01783 0.0456,0 0.0951,-0.01289 0.0495,-0.01386 0.0713,-0.02278 h 0.01 z"
           inkscape:connector-curvature="0" />
      </g>
      <g
         id="text5965"
         style="font-style:normal;font-weight:normal;font-size:2.82222px;line-height:1.25;font-family:sans-serif;letter-spacing:0px;word-spacing:0px;display:inline;fill:#000000;fill-opacity:1;stroke:none;stroke-width:0.264583"
         aria-label="frequency"
         transform="translate(15.851163,5.7642106)">
        <path
           id="path6226"
           style="stroke-width:0.0700042"
           d="m 9.1519737,48.479385 v 0.05578 H 9.087803 q -0.036096,0 -0.050315,0.01458 -0.013856,0.01458 -0.013856,0.0525 v 0.0361 h 0.110475 v 0.05214 H 9.0236313 v 0.356222 H 8.9561802 V 48.69049 h -0.064171 v -0.05214 h 0.064171 v -0.02844 q 0,-0.06818 0.031721,-0.09917 0.031721,-0.03135 0.1006313,-0.03135 z" />
        <path
           id="path6228"
           style="stroke-width:0.0700042"
           d="m 9.4443875,48.701066 q -0.011303,-0.0066 -0.024794,-0.0095 -0.013126,-0.0033 -0.029168,-0.0033 -0.056879,0 -0.087506,0.03719 -0.030262,0.03682 -0.030262,0.1061 v 0.215117 h -0.067451 v -0.408366 h 0.067452 v 0.06344 q 0.021148,-0.03719 0.055056,-0.05505 0.033908,-0.01823 0.082401,-0.01823 0.00693,0 0.015314,0.0011 0.00838,7.94e-4 0.018595,0.0026 z" />
        <path
           id="path6230"
           style="stroke-width:0.0700042"
           d="m 9.8487357,48.825761 v 0.03281 H 9.5402789 q 0.00438,0.06928 0.041565,0.105735 0.037555,0.0361 0.1042774,0.0361 0.038648,0 0.074744,-0.0095 0.036461,-0.0095 0.072192,-0.02844 v 0.06344 q -0.036096,0.01532 -0.074015,0.02334 -0.037919,0.008 -0.076932,0.008 -0.097714,0 -0.1549574,-0.05688 -0.056879,-0.05688 -0.056879,-0.153866 0,-0.100267 0.053962,-0.158967 0.054326,-0.05907 0.1462069,-0.05907 0.082401,0 0.1301644,0.05323 0.048128,0.05287 0.048128,0.14402 z m -0.067088,-0.01969 q -7.408e-4,-0.05505 -0.030992,-0.08787 -0.029898,-0.03282 -0.079484,-0.03282 -0.056149,0 -0.090058,0.03172 -0.033544,0.03172 -0.038648,0.08933 z" />
        <path
           id="path6232"
           style="stroke-width:0.0700042"
           d="m 9.9989532,48.842896 q 0,0.07402 0.030263,0.11631 0.03063,0.04193 0.08386,0.04193 0.05323,0 0.08386,-0.04193 0.03063,-0.04229 0.03063,-0.11631 0,-0.07402 -0.03063,-0.115943 -0.03063,-0.04229 -0.08386,-0.04229 -0.05323,0 -0.08386,0.04229 -0.030263,0.04193 -0.030263,0.115943 z m 0.2286078,0.142562 q -0.02115,0.03646 -0.0536,0.05433 -0.03209,0.01749 -0.0773,0.01749 -0.07401,0 -0.1206849,-0.05906 -0.046305,-0.05907 -0.046305,-0.155324 0,-0.09625 0.046305,-0.155321 0.04667,-0.05907 0.1206849,-0.05907 0.04521,0 0.0773,0.01786 0.03245,0.01749 0.0536,0.05396 v -0.06197 h 0.06709 v 0.563679 h -0.06709 z" />
        <path
           id="path6234"
           style="stroke-width:0.0700042"
           d="m 10.425907,48.885554 v -0.2472 h 0.06709 v 0.24465 q 0,0.05797 0.02261,0.08714 0.02261,0.0288 0.06782,0.0288 0.05433,0 0.08568,-0.03464 0.03172,-0.03464 0.03172,-0.09443 V 48.63835 h 0.06709 v 0.408358 h -0.06709 v -0.06271 q -0.02443,0.03719 -0.05688,0.05542 -0.03209,0.01786 -0.07474,0.01786 -0.07037,0 -0.106829,-0.04375 -0.03646,-0.04375 -0.03646,-0.127979 z m 0.168812,-0.257045 z" />
        <path
           id="path6236-2"
           style="stroke-width:0.0700042"
           d="m 11.256115,48.825761 v 0.03281 h -0.308457 q 0.0044,0.06928 0.04157,0.105735 0.03755,0.0361 0.104277,0.0361 0.03865,0 0.07475,-0.0095 0.03646,-0.0095 0.07219,-0.02844 v 0.06344 q -0.0361,0.01532 -0.07401,0.02334 -0.03792,0.008 -0.07693,0.008 -0.09771,0 -0.154958,-0.05688 -0.05688,-0.05688 -0.05688,-0.153866 0,-0.100267 0.05396,-0.158967 0.05433,-0.05907 0.146207,-0.05907 0.0824,0 0.130165,0.05323 0.04813,0.05287 0.04813,0.14402 z m -0.06709,-0.01969 q -7.41e-4,-0.05505 -0.03099,-0.08787 -0.0299,-0.03282 -0.07948,-0.03282 -0.05615,0 -0.09006,0.03172 -0.03354,0.03172 -0.03865,0.08933 z" />
        <path
           id="path6238"
           style="stroke-width:0.0700042"
           d="m 11.705674,48.800237 v 0.246475 h -0.06709 v -0.244287 q 0,-0.05797 -0.02261,-0.08678 -0.02261,-0.02881 -0.06782,-0.02881 -0.05433,0 -0.08568,0.03464 -0.03136,0.03464 -0.03136,0.09443 v 0.230796 h -0.06745 v -0.408358 h 0.06745 v 0.06344 q 0.02406,-0.03682 0.05651,-0.05505 0.03282,-0.01823 0.07547,-0.01823 0.07037,0 0.106465,0.04375 0.0361,0.04339 0.0361,0.127976 z" />
        <path
           id="path6240"
           style="stroke-width:0.0700042"
           d="m 12.134086,48.654031 v 0.06271 q -0.02844,-0.01566 -0.05724,-0.02334 -0.02844,-0.008 -0.05761,-0.008 -0.06526,0 -0.101361,0.04157 -0.0361,0.0412 -0.0361,0.115943 0,0.07475 0.0361,0.116311 0.0361,0.0412 0.101361,0.0412 0.02917,0 0.05761,-0.0076 0.0288,-0.008 0.05724,-0.02371 v 0.06198 q -0.02807,0.01312 -0.05834,0.01968 -0.0299,0.0066 -0.06381,0.0066 -0.09225,0 -0.146572,-0.05797 -0.05433,-0.05797 -0.05433,-0.156416 0,-0.0999 0.05469,-0.157144 0.05505,-0.05724 0.150582,-0.05724 0.03099,0 0.06052,0.0066 0.02953,0.0062 0.05724,0.01897 z" />
        <path
           id="path6242"
           style="stroke-width:0.0700042"
           d="m 12.421395,49.08463 q -0.02844,0.07292 -0.05542,0.09516 -0.02698,0.02225 -0.07219,0.02225 h -0.0536 v -0.05615 h 0.03938 q 0.02771,0 0.04302,-0.01312 0.01531,-0.01312 0.03391,-0.06198 l 0.01203,-0.03063 -0.165167,-0.401794 h 0.0711 l 0.127613,0.319395 0.127612,-0.319395 h 0.0711 z" />
      </g>
      <g
         id="text5967-7-3"
         style="font-style:normal;font-variant:normal;font-weight:bold;font-stretch:normal;font-size:12.7807px;line-height:1.25;font-family:sans-serif;-inkscape-font-specification:'sans-serif Bold';letter-spacing:0px;word-spacing:0px;display:inline;fill:#000000;fill-opacity:1;stroke:none;stroke-width:0.844236"
         aria-label="cv"
         transform="matrix(0.43423599,0,0,0.35444393,129.4634,35.773326)">
        <path
           id="path6135-6"
           style="font-style:normal;font-variant:normal;font-weight:normal;font-stretch:normal;font-size:7.66842px;font-family:sans-serif;-inkscape-font-specification:sans-serif;stroke-width:0.223371"
           d="m -256.1099,67.809099 q -0.0931,0.04458 -0.17733,0.06935 -0.0832,0.02477 -0.17733,0.02477 -0.11988,0 -0.21994,-0.03467 -0.10006,-0.03567 -0.17139,-0.106995 -0.0723,-0.07133 -0.11195,-0.180305 -0.0396,-0.108977 -0.0396,-0.254609 0,-0.271449 0.1486,-0.425998 0.1496,-0.154548 0.3943,-0.154548 0.0951,0 0.18625,0.02675 0.0921,0.02675 0.16841,0.06539 v 0.207055 h -0.01 q -0.0852,-0.06638 -0.17634,-0.102042 -0.0902,-0.03567 -0.17635,-0.03567 -0.15851,0 -0.25064,0.106995 -0.0911,0.106005 -0.0911,0.312068 0,0.20012 0.0892,0.308105 0.0901,0.106995 0.25262,0.106995 0.0565,0 0.11492,-0.01487 0.0585,-0.01487 0.10502,-0.03864 0.0406,-0.0208 0.0763,-0.04359 0.0357,-0.02379 0.0565,-0.04062 h 0.01 z"
           inkscape:connector-curvature="0" />
        <path
           id="path6137-7"
           style="font-style:normal;font-variant:normal;font-weight:normal;font-stretch:normal;font-size:7.66842px;font-family:sans-serif;-inkscape-font-specification:sans-serif;stroke-width:0.223371"
           d="m -254.91314,66.771845 -0.44779,1.106602 h -0.18724 l -0.44483,-1.106602 h 0.2021 l 0.34279,0.880724 0.3398,-0.880724 z"
           inkscape:connector-curvature="0" />
      </g>
      <path
         style="display:inline;fill:none;stroke:#000000;stroke-width:0.0633516;stroke-linecap:round;stroke-linejoin:round;stroke-miterlimit:10;stroke-opacity:1"
         d="m 18.65129,58.163838 h 5.259016"
         id="path25971-0"
         inkscape:connector-curvature="0" />
      <path
         style="display:inline;fill:none;stroke:#000000;stroke-width:0.063395;stroke-linecap:round;stroke-linejoin:round;stroke-miterlimit:10;stroke-opacity:1"
         d="m 18.639739,55.993705 h 5.26623"
         id="path25971-9"
         inkscape:connector-curvature="0" />
      <path
         inkscape:connector-curvature="0"
         id="path6189"
         d="m 26.351814,57.04377 c -1.400087,0 -1.400087,0 -1.400087,0"
         style="display:inline;fill:none;stroke:#000000;stroke-width:0.0700042px;stroke-linecap:butt;stroke-linejoin:miter;stroke-opacity:1" />
      <path
         inkscape:connector-curvature="0"
         id="path6191"
         d="m 23.901662,55.993705 1.050065,1.050065"
         style="display:inline;fill:none;stroke:#000000;stroke-width:0.0700042px;stroke-linecap:butt;stroke-linejoin:miter;stroke-opacity:1" />
      <path
         inkscape:connector-curvature="0"
         id="path6204"
         d="m 24.951727,57.04377 -1.050065,1.120068"
         style="display:inline;fill:none;stroke:#000000;stroke-width:0.0700042px;stroke-linecap:butt;stroke-linejoin:miter;stroke-opacity:1" />
      <g
         id="use31232"
         transform="translate(-6.2497335,23.34961)">
        <path
           inkscape:connector-curvature="0"
           id="path31244"
           d="m 24.550413,33.715648 c -0.591391,0 -1.072306,-0.480912 -1.072306,-1.072309 0,-0.591386 0.480915,-1.072306 1.072306,-1.072306 0.591391,0 1.072306,0.48092 1.072306,1.072306 0,0.591397 -0.480915,1.072309 -1.072306,1.072309"
           style="fill:#e6e6e6;fill-opacity:1;fill-rule:nonzero;stroke:#636663;stroke-width:0.0661458;stroke-miterlimit:4;stroke-dasharray:none;stroke-opacity:1" />
        <path
           inkscape:connector-curvature="0"
           id="path31246"
           d="m 24.550413,33.415581 c -0.425859,0 -0.772235,-0.346382 -0.772235,-0.772242 0,-0.425857 0.346376,-0.772231 0.772235,-0.772231 0.42586,0 0.772235,0.346374 0.772235,0.772231 0,0.42586 -0.346375,0.772242 -0.772235,0.772242"
           style="fill:#e6e6e6;fill-opacity:1;fill-rule:nonzero;stroke:#636663;stroke-width:0.0661458;stroke-miterlimit:4;stroke-dasharray:none;stroke-opacity:1" />
        <path
           inkscape:connector-curvature="0"
           id="path31248"
           d="m 25.026589,32.643339 c 0,0.262882 -0.213295,0.476181 -0.476176,0.476181 -0.262881,0 -0.476176,-0.213299 -0.476176,-0.476181 0,-0.262879 0.213295,-0.476168 0.476176,-0.476168 0.262881,0 0.476176,0.213289 0.476176,0.476168"
           style="fill:#000000;fill-opacity:1;fill-rule:nonzero;stroke:none;stroke-width:0.0933392" />
      </g>
      <g
         transform="translate(-6.2476877,25.513716)"
         id="use31232-1">
        <path
           style="fill:#e6e6e6;fill-opacity:1;fill-rule:nonzero;stroke:#636663;stroke-width:0.0661458;stroke-miterlimit:4;stroke-dasharray:none;stroke-opacity:1"
           d="m 24.550413,33.715648 c -0.591391,0 -1.072306,-0.480912 -1.072306,-1.072309 0,-0.591386 0.480915,-1.072306 1.072306,-1.072306 0.591391,0 1.072306,0.48092 1.072306,1.072306 0,0.591397 -0.480915,1.072309 -1.072306,1.072309"
           id="path31244-3"
           inkscape:connector-curvature="0" />
        <path
           style="fill:#e6e6e6;fill-opacity:1;fill-rule:nonzero;stroke:#636663;stroke-width:0.0661458;stroke-miterlimit:4;stroke-dasharray:none;stroke-opacity:1"
           d="m 24.550413,33.415581 c -0.425859,0 -0.772235,-0.346382 -0.772235,-0.772242 0,-0.425857 0.346376,-0.772231 0.772235,-0.772231 0.42586,0 0.772235,0.346374 0.772235,0.772231 0,0.42586 -0.346375,0.772242 -0.772235,0.772242"
           id="path31246-1"
           inkscape:connector-curvature="0" />
        <path
           style="fill:#000000;fill-opacity:1;fill-rule:nonzero;stroke:none;stroke-width:0.0933392"
           d="m 25.026589,32.643339 c 0,0.262882 -0.213295,0.476181 -0.476176,0.476181 -0.262881,0 -0.476176,-0.213299 -0.476176,-0.476181 0,-0.262879 0.213295,-0.476168 0.476176,-0.476168 0.262881,0 0.476176,0.213289 0.476176,0.476168"
           id="path31248-4"
           inkscape:connector-curvature="0" />
      </g>
      <use
         height="100%"
         width="100%"
         y="0"
         x="0"
         transform="translate(-23.106431,39.272861)"
         id="use22980-7"
         xlink:href="#layer1-34" />
      <circle
         inkscape:label="VOCT"
         r="1.0500652"
         cy="55.993702"
         cx="18.301315"
         id="path1389-8"
         style="display:inline;opacity:1;fill:#00ff00;fill-opacity:1;stroke-width:0.0700042" />
      <circle
         inkscape:label="FREQ_CV"
         r="1.0500652"
         cy="58.163837"
         cx="18.301315"
         id="path1389-8-5"
         style="display:inline;opacity:1;fill:#00ff00;fill-opacity:1;stroke-width:0.0700042" />
      <circle
         inkscape:label="FREQUENCY"
         r="1.0500652"
         cy="57.04377"
         cx="26.701836"
         id="path1587-8-0-2"
         style="display:inline;opacity:1;fill:#ff0000;fill-opacity:1;stroke-width:0.0700042" />
      <circle
         inkscape:label="FREQUENCY_CV_ATTENUVERTER"
         r="1.0500652"
         cy="58.163837"
         cx="22.43157"
         id="path1587-8-0-2-9"
         style="display:inline;opacity:1;fill:#ff0000;fill-opacity:1;stroke-width:0.0700042" />
    </symbol>
    <symbol
       id="layer1-9">
      <path
         inkscape:connector-curvature="0"
         style="fill:#000000;fill-opacity:1;fill-rule:nonzero;stroke:none;stroke-width:0.0933392"
         d="m 37.215276,18.312357 c 0,0.927557 -0.752182,1.680104 -1.680105,1.680104 -0.92792,0 -1.680101,-0.752547 -1.680101,-1.680104 0,-0.927923 0.752181,-1.680104 1.680101,-1.680104 0.927923,0 1.680105,0.752181 1.680105,1.680104"
         id="path110590" />
      <path
         inkscape:connector-curvature="0"
         style="fill:#ffffff;fill-opacity:1;fill-rule:evenodd;stroke:none;stroke-width:0.0933392"
         d="m 35.590951,16.638452 c -0.01823,-0.004 -0.03682,-0.0062 -0.05578,-0.0062 -0.01934,0 -0.03792,0.0022 -0.05579,0.0062 v 1.694688 h 0.111567 z m 0,0"
         id="path110592" />
    </symbol>
    <symbol
       id="layer1-4">
      <path
         inkscape:connector-curvature="0"
         id="path7255"
         d="m 24.550413,33.715648 c -0.591391,0 -1.072306,-0.480912 -1.072306,-1.072309 0,-0.591386 0.480915,-1.072306 1.072306,-1.072306 0.591391,0 1.072306,0.48092 1.072306,1.072306 0,0.591397 -0.480915,1.072309 -1.072306,1.072309"
         style="fill:#e6e6e6;fill-opacity:1;fill-rule:nonzero;stroke:#636663;stroke-width:0.0661458;stroke-miterlimit:4;stroke-dasharray:none;stroke-opacity:1" />
      <path
         inkscape:connector-curvature="0"
         id="path7261"
         d="m 24.550413,33.415581 c -0.425859,0 -0.772235,-0.346382 -0.772235,-0.772242 0,-0.425857 0.346376,-0.772231 0.772235,-0.772231 0.42586,0 0.772235,0.346374 0.772235,0.772231 0,0.42586 -0.346375,0.772242 -0.772235,0.772242"
         style="fill:#e6e6e6;fill-opacity:1;fill-rule:nonzero;stroke:#636663;stroke-width:0.0661458;stroke-miterlimit:4;stroke-dasharray:none;stroke-opacity:1" />
      <path
         inkscape:connector-curvature="0"
         id="path7265"
         d="m 25.026589,32.643339 c 0,0.262882 -0.213295,0.476181 -0.476176,0.476181 -0.262881,0 -0.476176,-0.213299 -0.476176,-0.476181 0,-0.262879 0.213295,-0.476168 0.476176,-0.476168 0.262881,0 0.476176,0.213289 0.476176,0.476168"
         style="fill:#000000;fill-opacity:1;fill-rule:nonzero;stroke:none;stroke-width:0.0933392" />
    </symbol>
    <symbol
       id="layer1-8">
      <path
         inkscape:connector-curvature="0"
         style="fill:#000000;fill-opacity:1;fill-rule:nonzero;stroke:none;stroke-width:0.0933392"
         d="m 31.01176,22.999211 c 0,1.388419 -1.12553,2.513593 -2.513584,2.513593 -1.38842,0 -2.513596,-1.125174 -2.513596,-2.513593 0,-1.388055 1.125176,-2.513593 2.513596,-2.513593 1.388054,0 2.513584,1.125538 2.513584,2.513593"
         id="path110586" />
      <path
         inkscape:connector-curvature="0"
         style="fill:#ffffff;fill-opacity:1;fill-rule:evenodd;stroke:none;stroke-width:0.0933392"
         d="m 28.581667,20.495462 c -0.02735,-0.0062 -0.05469,-0.0098 -0.08349,-0.0098 -0.02881,0 -0.05652,0.0036 -0.0835,0.0098 v 2.53547 h 0.166994 z m 0,0"
         id="path110588" />
    </symbol>
    <symbol
       id="layer1-34">
      <path
         inkscape:connector-curvature="0"
         style="fill:#000000;fill-opacity:1;fill-rule:nonzero;stroke:none;stroke-width:0.0933392"
         d="m 46.591175,18.890468 c 0,0.584463 -0.47362,1.058087 -1.058082,1.058087 -0.58447,0 -1.058455,-0.473624 -1.058455,-1.058087 0,-0.584827 0.473985,-1.058451 1.058455,-1.058451 0.584462,0 1.058082,0.473624 1.058082,1.058451"
         id="path110598" />
      <path
         inkscape:connector-curvature="0"
         style="fill:#ffffff;fill-opacity:1;fill-rule:evenodd;stroke:none;stroke-width:0.0933392"
         d="m 45.568095,17.836028 c -0.0113,-0.0026 -0.02297,-0.004 -0.035,-0.004 -0.01204,0 -0.02371,0.0015 -0.03537,0.004 v 1.067566 h 0.07037 z m 0,0"
         id="path110600" />
    </symbol>
    <symbol
       id="layer1-3">
      <path
         inkscape:connector-curvature="0"
         style="fill:#000000;fill-opacity:1;fill-rule:nonzero;stroke:none;stroke-width:0.0933392"
         d="m 38.57825,17.56713 c 0,0.730669 -0.592113,1.323155 -1.322781,1.323155 -0.730679,0 -1.323158,-0.592486 -1.323158,-1.323155 0,-0.730671 0.592479,-1.322791 1.323158,-1.322791 0.730668,0 1.322781,0.59212 1.322781,1.322791"
         id="path110594" />
      <path
         inkscape:connector-curvature="0"
         style="fill:#ffffff;fill-opacity:1;fill-rule:evenodd;stroke:none;stroke-width:0.0933392"
         d="m 37.29958,16.249444 c -0.01458,-0.0033 -0.02917,-0.0051 -0.04411,-0.0051 -0.01532,0 -0.02953,0.0018 -0.04412,0.0051 v 1.334457 h 0.08823 z m 0,0"
         id="path110596" />
    </symbol>
    <linearGradient
       y2="55.57832"
       x2="-831.97699"
       y1="55.57832"
       x1="-869.41425"
       gradientTransform="matrix(0.27602379,0,0,0.27602379,249.79256,54.572287)"
       gradientUnits="userSpaceOnUse"
       id="linearGradient7320"
       xlink:href="#linearGradient1686"
       inkscape:collect="always" />
  </defs>
  <sodipodi:namedview
     inkscape:snap-others="false"
     inkscape:snap-nodes="false"
     inkscape:snap-bbox-edge-midpoints="true"
     inkscape:document-rotation="0"
     showborder="true"
     inkscape:snap-global="true"
     inkscape:bbox-nodes="true"
     inkscape:bbox-paths="true"
     inkscape:snap-bbox="true"
     units="mm"
     inkscape:window-maximized="1"
     inkscape:window-y="27"
     inkscape:window-x="0"
     inkscape:window-height="950"
     inkscape:window-width="1920"
     fit-margin-bottom="0"
     fit-margin-right="0"
     fit-margin-left="0"
     fit-margin-top="0"
     showgrid="true"
     inkscape:current-layer="layer1"
     inkscape:document-units="mm"
     inkscape:cy="254.11034"
     inkscape:cx="-413.43986"
     inkscape:zoom="0.97250425"
     inkscape:pageshadow="2"
     inkscape:pageopacity="0.0"
     borderopacity="1.0"
     bordercolor="#666666"
     pagecolor="#ffffff"
     id="base">
    <inkscape:grid
       spacingx="1.5240002"
       units="mm"
       id="grid5963"
       type="xygrid" />
  </sodipodi:namedview>
  <metadata
     id="metadata4538">
    <rdf:RDF>
      <cc:Work
         rdf:about="">
        <dc:format>image/svg+xml</dc:format>
        <dc:type
           rdf:resource="http://purl.org/dc/dcmitype/StillImage" />
        <dc:title>SSPO 3HP template</dc:title>
        <dc:identifier>SSPO 3HP template</dc:identifier>
      </cc:Work>
    </rdf:RDF>
  </metadata>
  <g
     transform="translate(-6.6477068,-63.816955)"
     id="layer1"
     inkscape:groupmode="layer"
     inkscape:label="Layer 1">
    <path
       inkscape:export-ydpi="100.2962"
       inkscape:export-xdpi="100.2962"
       inkscape:export-filename="/home/vortico/src/cpp/VCV/Rack/plugins/Fundamental/res/Delay.png"
       inkscape:connector-curvature="0"
       id="path25061"
       d="M 6.6477068,63.816955 H 21.877034 V 192.30567 H 6.6477068 Z m 0,0"
       style="fill:url(#linearGradient5502);fill-opacity:1;fill-rule:nonzero;stroke:none;stroke-width:0.182863" />
    <rect
       y="190.64796"
       x="6.6477017"
       height="1.6670943"
       width="15.237206"
       id="rect5276"
       style="fill:#cdde87;fill-opacity:1;stroke-width:0.178723" />
    <rect
       style="fill:url(#linearGradient5496);fill-opacity:1;stroke-width:0.321107"
       id="rect5287"
       width="10.583327"
       height="10.535396"
       x="8.8423147"
       y="167.23116" />
    <g
       aria-label="Studio Six Plus One"
       style="font-style:normal;font-variant:normal;font-weight:bold;font-stretch:normal;font-size:12.7807px;line-height:1.25;font-family:sans-serif;-inkscape-font-specification:'sans-serif Bold';letter-spacing:0px;word-spacing:0px;fill:#000000;fill-opacity:1;stroke:none;stroke-width:0.844236"
       id="text5967-7-1-3"
       transform="matrix(0,-0.27602379,0.3524041,0,-123.86376,-70.222618)">
      <path
         d="m -938.94801,379.11774 q 0,0.32576 -0.15352,0.64403 -0.14977,0.31827 -0.42311,0.53918 -0.29955,0.23964 -0.70019,0.37444 -0.39691,0.13479 -0.95856,0.13479 -0.60284,0 -1.08586,-0.11233 -0.47927,-0.11233 -0.97727,-0.33324 v -0.9286 h 0.0524 q 0.42311,0.35197 0.97727,0.54293 0.55417,0.19096 1.04093,0.19096 0.68896,0 1.07088,-0.25836 0.38567,-0.25836 0.38567,-0.68896 0,-0.37069 -0.18347,-0.54667 -0.17973,-0.17599 -0.55042,-0.27334 -0.28083,-0.0749 -0.61033,-0.12356 -0.32576,-0.0487 -0.6927,-0.12357 -0.74138,-0.15726 -1.10084,-0.53544 -0.35571,-0.38192 -0.35571,-0.99225 0,-0.70019 0.5916,-1.14577 0.59161,-0.44932 1.50149,-0.44932 0.58786,0 1.07837,0.11233 0.49051,0.11233 0.86869,0.27708 v 0.87618 h -0.0524 q -0.31827,-0.2696 -0.83874,-0.44558 -0.51672,-0.17973 -1.05965,-0.17973 -0.59535,0 -0.95855,0.24713 -0.35946,0.24712 -0.35946,0.63654 0,0.34822 0.17973,0.54667 0.17973,0.19845 0.6328,0.30329 0.23963,0.0524 0.68147,0.12731 0.44183,0.0749 0.74887,0.15352 0.62156,0.16475 0.93608,0.498 0.31453,0.33324 0.31453,0.93234 z"
         style="font-style:normal;font-variant:normal;font-weight:normal;font-stretch:normal;font-size:7.66842px;font-family:sans-serif;-inkscape-font-specification:sans-serif;stroke-width:0.844236"
         id="path6170"
         inkscape:connector-curvature="0" />
      <path
         d="m -935.64175,380.67164 q -0.19845,0.0524 -0.43435,0.0861 -0.23215,0.0337 -0.41562,0.0337 -0.64028,0 -0.97353,-0.34448 -0.33325,-0.34448 -0.33325,-1.10458 v -2.22414 h -0.47553 v -0.59161 h 0.47553 v -1.20193 h 0.70394 v 1.20193 h 1.45281 v 0.59161 h -1.45281 v 1.90587 q 0,0.3295 0.015,0.51672 0.015,0.18347 0.10484,0.34448 0.0824,0.14977 0.22466,0.22092 0.14603,0.0674 0.44183,0.0674 0.17224,0 0.35946,-0.0487 0.18722,-0.0524 0.26959,-0.0861 h 0.0375 z"
         style="font-style:normal;font-variant:normal;font-weight:normal;font-stretch:normal;font-size:7.66842px;font-family:sans-serif;-inkscape-font-specification:sans-serif;stroke-width:0.844236"
         id="path6172"
         inkscape:connector-curvature="0" />
      <path
         d="m -931.32078,380.70909 h -0.70394 v -0.4643 q -0.35571,0.28082 -0.68147,0.4306 -0.32575,0.14977 -0.71891,0.14977 -0.65901,0 -1.02595,-0.40064 -0.36695,-0.40439 -0.36695,-1.18322 v -2.71465 h 0.70394 v 2.38141 q 0,0.31826 0.0299,0.54667 0.03,0.22466 0.12731,0.38567 0.1011,0.16475 0.26211,0.23964 0.161,0.0749 0.46804,0.0749 0.27334,0 0.59535,-0.14228 0.32576,-0.14229 0.60658,-0.3632 v -3.12279 h 0.70394 z"
         style="font-style:normal;font-variant:normal;font-weight:normal;font-stretch:normal;font-size:7.66842px;font-family:sans-serif;-inkscape-font-specification:sans-serif;stroke-width:0.844236"
         id="path6174"
         inkscape:connector-curvature="0" />
      <path
         d="m -926.54299,380.70909 h -0.70394 V 380.271 q -0.30329,0.2621 -0.63279,0.40813 -0.32951,0.14603 -0.71517,0.14603 -0.74887,0 -1.19071,-0.57663 -0.43809,-0.57663 -0.43809,-1.59883 0,-0.5317 0.14978,-0.94732 0.15352,-0.41563 0.41188,-0.70769 0.25461,-0.28457 0.5916,-0.43434 0.34074,-0.14977 0.70394,-0.14977 0.3295,0 0.58412,0.0711 0.25461,0.0674 0.53544,0.21343 v -1.81227 h 0.70394 z m -0.70394,-1.0297 v -2.40013 q -0.28457,-0.1273 -0.50923,-0.17598 -0.22466,-0.0487 -0.49051,-0.0487 -0.59161,0 -0.92111,0.41188 -0.3295,0.41188 -0.3295,1.16824 0,0.74512 0.25461,1.13454 0.25462,0.38566 0.81627,0.38566 0.29955,0 0.60658,-0.13105 0.30704,-0.1348 0.57289,-0.34448 z"
         style="font-style:normal;font-variant:normal;font-weight:normal;font-stretch:normal;font-size:7.66842px;font-family:sans-serif;-inkscape-font-specification:sans-serif;stroke-width:0.844236"
         id="path6176"
         inkscape:connector-curvature="0" />
      <path
         d="m -924.40123,375.82646 h -0.7938 v -0.73015 h 0.7938 z m -0.0449,4.88263 h -0.70394 v -4.18244 h 0.70394 z"
         style="font-style:normal;font-variant:normal;font-weight:normal;font-stretch:normal;font-size:7.66842px;font-family:sans-serif;-inkscape-font-specification:sans-serif;stroke-width:0.844236"
         id="path6178"
         inkscape:connector-curvature="0" />
      <path
         d="m -919.48116,378.61974 q 0,1.02221 -0.5242,1.61381 -0.52421,0.59161 -1.40413,0.59161 -0.88741,0 -1.41162,-0.59161 -0.52047,-0.5916 -0.52047,-1.61381 0,-1.02221 0.52047,-1.61381 0.52421,-0.59535 1.41162,-0.59535 0.87992,0 1.40413,0.59535 0.5242,0.5916 0.5242,1.61381 z m -0.7264,0 q 0,-0.81252 -0.31827,-1.20568 -0.31827,-0.3969 -0.88366,-0.3969 -0.57289,0 -0.89116,0.3969 -0.31452,0.39316 -0.31452,1.20568 0,0.78631 0.31827,1.19445 0.31826,0.40439 0.88741,0.40439 0.56165,0 0.87992,-0.40065 0.32201,-0.40439 0.32201,-1.19819 z"
         style="font-style:normal;font-variant:normal;font-weight:normal;font-stretch:normal;font-size:7.66842px;font-family:sans-serif;-inkscape-font-specification:sans-serif;stroke-width:0.844236"
         id="path6180"
         inkscape:connector-curvature="0" />
      <path
         d="m -938.90682,389.6158 q 0,0.32576 -0.15352,0.64403 -0.14977,0.31827 -0.42311,0.53918 -0.29955,0.23964 -0.70019,0.37444 -0.3969,0.13479 -0.95855,0.13479 -0.60284,0 -1.08586,-0.11233 -0.47928,-0.11233 -0.97728,-0.33324 v -0.9286 h 0.0524 q 0.42311,0.35197 0.97728,0.54293 0.55416,0.19096 1.04093,0.19096 0.68895,0 1.07088,-0.25836 0.38567,-0.25836 0.38567,-0.68896 0,-0.37069 -0.18348,-0.54667 -0.17973,-0.17599 -0.55042,-0.27334 -0.28082,-0.0749 -0.61032,-0.12356 -0.32576,-0.0487 -0.69271,-0.12357 -0.74138,-0.15726 -1.10084,-0.53544 -0.35571,-0.38192 -0.35571,-0.99225 0,-0.70019 0.59161,-1.14577 0.5916,-0.44932 1.50148,-0.44932 0.58786,0 1.07837,0.11233 0.49051,0.11233 0.86869,0.27708 v 0.87618 h -0.0524 q -0.31827,-0.2696 -0.83873,-0.44558 -0.51672,-0.17973 -1.05965,-0.17973 -0.59536,0 -0.95856,0.24713 -0.35945,0.24712 -0.35945,0.63654 0,0.34822 0.17972,0.54667 0.17973,0.19845 0.6328,0.30329 0.23964,0.0524 0.68147,0.12731 0.44183,0.0749 0.74887,0.15352 0.62156,0.16475 0.93609,0.498 0.31452,0.33324 0.31452,0.93234 z"
         style="font-style:normal;font-variant:normal;font-weight:normal;font-stretch:normal;font-size:7.66842px;font-family:sans-serif;-inkscape-font-specification:sans-serif;stroke-width:0.844236"
         id="path6182"
         inkscape:connector-curvature="0" />
      <path
         d="m -937.01593,386.32452 h -0.7938 v -0.73015 h 0.7938 z m -0.0449,4.88263 h -0.70394 v -4.18244 h 0.70394 z"
         style="font-style:normal;font-variant:normal;font-weight:normal;font-stretch:normal;font-size:7.66842px;font-family:sans-serif;-inkscape-font-specification:sans-serif;stroke-width:0.844236"
         id="path6184"
         inkscape:connector-curvature="0" />
      <path
         d="m -932.03969,391.20715 h -0.88741 l -1.18696,-1.60633 -1.19444,1.60633 h -0.82001 l 1.63253,-2.0856 -1.61756,-2.09684 h 0.88741 l 1.17947,1.58012 1.18322,-1.58012 h 0.82375 l -1.64377,2.05939 z"
         style="font-style:normal;font-variant:normal;font-weight:normal;font-stretch:normal;font-size:7.66842px;font-family:sans-serif;-inkscape-font-specification:sans-serif;stroke-width:0.844236"
         id="path6186"
         inkscape:connector-curvature="0" />
      <path
         d="m -939.91312,398.65275 q 0,0.37069 -0.13105,0.68896 -0.12731,0.31453 -0.35945,0.54667 -0.28832,0.28832 -0.68148,0.43435 -0.39315,0.14228 -0.99225,0.14228 h -0.74138 v 2.07812 h -0.74138 v -5.57534 h 1.51272 q 0.50174,0 0.84996,0.0861 0.34823,0.0824 0.61782,0.26211 0.31827,0.21343 0.49051,0.5317 0.17598,0.31827 0.17598,0.80503 z m -0.77133,0.0187 q 0,-0.28831 -0.1011,-0.50174 -0.1011,-0.21343 -0.30703,-0.34822 -0.17973,-0.11608 -0.41188,-0.16476 -0.22841,-0.0524 -0.58038,-0.0524 h -0.73389 v 2.22789 h 0.62531 q 0.44932,0 0.73015,-0.0786 0.28082,-0.0824 0.45681,-0.25836 0.17598,-0.17973 0.24712,-0.37818 0.0749,-0.19845 0.0749,-0.44558 z"
         style="font-style:normal;font-variant:normal;font-weight:normal;font-stretch:normal;font-size:7.66842px;font-family:sans-serif;-inkscape-font-specification:sans-serif;stroke-width:0.844236"
         id="path6188"
         inkscape:connector-curvature="0" />
      <path
         d="m -938.27683,402.54313 h -0.70394 v -5.82621 h 0.70394 z"
         style="font-style:normal;font-variant:normal;font-weight:normal;font-stretch:normal;font-size:7.66842px;font-family:sans-serif;-inkscape-font-specification:sans-serif;stroke-width:0.844236"
         id="path6190"
         inkscape:connector-curvature="0" />
      <path
         d="m -933.40919,402.54313 h -0.70393 v -0.4643 q -0.35572,0.28082 -0.68148,0.4306 -0.32575,0.14977 -0.71891,0.14977 -0.659,0 -1.02595,-0.40064 -0.36695,-0.40439 -0.36695,-1.18322 v -2.71465 h 0.70394 v 2.38141 q 0,0.31826 0.03,0.54667 0.03,0.22466 0.1273,0.38567 0.1011,0.16475 0.26211,0.23964 0.161,0.0749 0.46804,0.0749 0.27334,0 0.59535,-0.14228 0.32576,-0.14229 0.60659,-0.3632 v -3.12279 h 0.70393 z"
         style="font-style:normal;font-variant:normal;font-weight:normal;font-stretch:normal;font-size:7.66842px;font-family:sans-serif;-inkscape-font-specification:sans-serif;stroke-width:0.844236"
         id="path6192"
         inkscape:connector-curvature="0" />
      <path
         d="m -929.03579,401.33745 q 0,0.57288 -0.47553,0.93983 -0.47179,0.36694 -1.2918,0.36694 -0.4643,0 -0.85371,-0.10858 -0.38567,-0.11233 -0.64778,-0.24339 v -0.79005 h 0.0374 q 0.33325,0.25087 0.74138,0.40064 0.40813,0.14603 0.78257,0.14603 0.4643,0 0.7264,-0.14977 0.2621,-0.14978 0.2621,-0.47179 0,-0.24713 -0.14228,-0.37443 -0.14229,-0.12731 -0.54668,-0.21718 -0.14977,-0.0337 -0.39315,-0.0786 -0.23964,-0.0449 -0.43809,-0.0974 -0.55042,-0.14603 -0.78257,-0.42686 -0.2284,-0.28457 -0.2284,-0.69644 0,-0.25836 0.10484,-0.48677 0.10858,-0.2284 0.32576,-0.40813 0.20968,-0.17599 0.53169,-0.27708 0.32576,-0.10485 0.72641,-0.10485 0.37443,0 0.75635,0.0936 0.38567,0.0899 0.64029,0.22092 v 0.75261 h -0.0375 q -0.26959,-0.19845 -0.65526,-0.33324 -0.38566,-0.13855 -0.75635,-0.13855 -0.38567,0 -0.65152,0.14978 -0.26585,0.14603 -0.26585,0.43809 0,0.25836 0.16101,0.38941 0.15726,0.13105 0.50923,0.21343 0.19471,0.0449 0.43434,0.0899 0.24339,0.0449 0.40439,0.0824 0.49051,0.11233 0.75636,0.38566 0.26585,0.27709 0.26585,0.7339 z"
         style="font-style:normal;font-variant:normal;font-weight:normal;font-stretch:normal;font-size:7.66842px;font-family:sans-serif;-inkscape-font-specification:sans-serif;stroke-width:0.844236"
         id="path6194"
         inkscape:connector-curvature="0" />
      <path
         d="m -939.25612,406.73596 q 0.34074,0.37443 0.52047,0.91736 0.18347,0.54293 0.18347,1.23189 0,0.68896 -0.18722,1.23564 -0.18347,0.54293 -0.51672,0.90613 -0.34448,0.37818 -0.81626,0.56914 -0.46805,0.19096 -1.07089,0.19096 -0.58786,0 -1.07088,-0.19471 -0.47928,-0.1947 -0.81627,-0.56539 -0.33699,-0.37069 -0.52046,-0.90988 -0.17973,-0.53918 -0.17973,-1.23189 0,-0.68147 0.17973,-1.22065 0.17973,-0.54293 0.52421,-0.9286 0.3295,-0.36695 0.81626,-0.56165 0.49051,-0.19471 1.06714,-0.19471 0.5991,0 1.07463,0.19845 0.47928,0.19471 0.81252,0.55791 z m -0.0674,2.14925 q 0,-1.08586 -0.48677,-1.67372 -0.48676,-0.59161 -1.32924,-0.59161 -0.84997,0 -1.33673,0.59161 -0.48303,0.58786 -0.48303,1.67372 0,1.0971 0.49426,1.68121 0.49425,0.58038 1.3255,0.58038 0.83124,0 1.32175,-0.58038 0.49426,-0.58411 0.49426,-1.68121 z"
         style="font-style:normal;font-variant:normal;font-weight:normal;font-stretch:normal;font-size:7.66842px;font-family:sans-serif;-inkscape-font-specification:sans-serif;stroke-width:0.844236"
         id="path6196"
         inkscape:connector-curvature="0" />
      <path
         d="m -933.9354,411.67101 h -0.70394 v -2.38141 q 0,-0.28831 -0.0337,-0.53918 -0.0337,-0.25462 -0.12357,-0.3969 -0.0936,-0.15727 -0.26959,-0.23215 -0.17599,-0.0786 -0.45681,-0.0786 -0.28832,0 -0.60284,0.14229 -0.31453,0.14228 -0.60284,0.3632 v 3.12279 h -0.70394 v -4.18244 h 0.70394 v 0.4643 q 0.3295,-0.27334 0.68147,-0.42686 0.35197,-0.15351 0.72266,-0.15351 0.67773,0 1.03344,0.40813 0.35571,0.40813 0.35571,1.17572 z"
         style="font-style:normal;font-variant:normal;font-weight:normal;font-stretch:normal;font-size:7.66842px;font-family:sans-serif;-inkscape-font-specification:sans-serif;stroke-width:0.844236"
         id="path6198"
         inkscape:connector-curvature="0" />
      <path
         d="m -929.07899,409.6528 h -3.08159 q 0,0.38567 0.11607,0.67399 0.11608,0.28457 0.31827,0.46804 0.19471,0.17973 0.46056,0.26959 0.26959,0.0899 0.5916,0.0899 0.42686,0 0.85746,-0.1685 0.43434,-0.17224 0.61782,-0.33699 h 0.0374 v 0.76759 q -0.35571,0.14977 -0.7264,0.25087 -0.37069,0.1011 -0.77883,0.1011 -1.04093,0 -1.62504,-0.56165 -0.58412,-0.5654 -0.58412,-1.60258 0,-1.02595 0.55791,-1.62879 0.56165,-0.60284 1.47527,-0.60284 0.84622,0 1.30303,0.49425 0.46055,0.49425 0.46055,1.40413 z m -0.68521,-0.53918 q -0.004,-0.55417 -0.28083,-0.85746 -0.27333,-0.30329 -0.83499,-0.30329 -0.56539,0 -0.90238,0.33325 -0.33325,0.33324 -0.37818,0.8275 z"
         style="font-style:normal;font-variant:normal;font-weight:normal;font-stretch:normal;font-size:7.66842px;font-family:sans-serif;-inkscape-font-specification:sans-serif;stroke-width:0.844236"
         id="path6200"
         inkscape:connector-curvature="0" />
    </g>
    <flowRoot
       xml:space="preserve"
       id="flowRoot4937"
       style="font-style:normal;font-weight:normal;font-size:10.6667px;line-height:1.25;font-family:sans-serif;letter-spacing:0px;word-spacing:0px;fill:#000000;fill-opacity:1;stroke:none;stroke-width:0.88074"
       transform="matrix(0.26458333,0,0,0.26458333,6.6477061,63.816955)"><flowRegion
         id="flowRegion4939"><rect
           id="rect4941"
           width="31.062191"
           height="10.859139"
           x="98.237335"
           y="242.7276" /></flowRegion><flowPara
         id="flowPara4943">color</flowPara></flowRoot>
    <g
       transform="matrix(0.27602379,0,0,0.27602379,259.40365,49.82163)"
       aria-label="out"
       style="font-style:normal;font-weight:normal;font-size:10.2246px;line-height:1.25;font-family:sans-serif;letter-spacing:0px;word-spacing:0px;fill:#000000;fill-opacity:1;stroke:none;stroke-width:0.844236"
       id="text4973">
      <path
         d="m -892.44242,419.37275 q -0.73888,0 -1.16824,0.57913 -0.42935,0.57413 -0.42935,1.57762 0,1.00348 0.42436,1.58261 0.42935,0.57413 1.17323,0.57413 0.73389,0 1.16324,-0.57913 0.42936,-0.57912 0.42936,-1.57761 0,-0.9935 -0.42936,-1.57263 -0.42935,-0.58412 -1.16324,-0.58412 z m 0,-0.77882 q 1.19819,0 1.88216,0.77882 0.68397,0.77883 0.68397,2.15675 0,1.37292 -0.68397,2.15674 -0.68397,0.77882 -1.88216,0.77882 -1.20318,0 -1.88715,-0.77882 -0.67897,-0.78382 -0.67897,-2.15674 0,-1.37792 0.67897,-2.15675 0.68397,-0.77882 1.88715,-0.77882 z"
         style="stroke-width:0.844236"
         id="path4975"
         inkscape:connector-curvature="0" />
      <path
         d="m -888.45344,422.11361 v -3.38489 h 0.91861 v 3.34995 q 0,0.7938 0.30953,1.1932 0.30954,0.3944 0.9286,0.3944 0.74388,0 1.17323,-0.47428 0.43434,-0.47429 0.43434,-1.29305 v -3.17022 h 0.91862 v 5.59156 h -0.91862 v -0.8587 q -0.33449,0.50923 -0.77882,0.75885 -0.43934,0.24463 -1.02345,0.24463 -0.96355,0 -1.4628,-0.59909 -0.49924,-0.5991 -0.49924,-1.75236 z m 2.31151,-3.51968 z"
         style="stroke-width:0.844236"
         id="path4977"
         inkscape:connector-curvature="0" />
      <path
         d="m -880.95976,417.14112 v 1.5876 h 1.89215 v 0.71393 h -1.89215 v 3.03541 q 0,0.68397 0.18472,0.87868 0.18972,0.1947 0.76385,0.1947 h 0.94358 v 0.76884 h -0.94358 q -1.06339,0 -1.46778,-0.3944 -0.40439,-0.3994 -0.40439,-1.44782 v -3.03541 h -0.67398 v -0.71393 h 0.67398 v -1.5876 z"
         style="stroke-width:0.844236"
         id="path4979"
         inkscape:connector-curvature="0" />
    </g>
    <text
       xml:space="preserve"
       style="font-style:normal;font-weight:normal;font-size:2.82223px;line-height:1.25;font-family:sans-serif;letter-spacing:0px;word-spacing:0px;fill:url(#linearGradient7320);fill-opacity:1;stroke:none;stroke-width:0.233029"
       x="9.8280125"
       y="71.754456"
       id="text5506"><tspan
         sodipodi:role="line"
         id="tspan5504"
         x="9.8280125"
         y="71.754456"
         style="font-size:4.93889px;fill:url(#linearGradient7320);fill-opacity:1;stroke-width:0.233029">Mix</tspan></text>
    <use
       inkscape:tile-y0="10.164157"
       inkscape:tile-x0="3.4416692"
       inkscape:tile-h="8.356676"
       inkscape:tile-w="8.3566647"
       inkscape:tile-cy="14.342495"
       inkscape:tile-cx="7.6200015"
       height="100%"
       width="100%"
       y="0"
       x="0"
       id="use7117"
       transform="matrix(3.78,0,0,3.78,-78.532853,-45.232377)"
       xlink:href="#layer1-4" />
    <use
       height="100%"
       width="100%"
       y="0"
       x="0"
       id="use7145"
       transform="matrix(3.78,0,0,3.78,-78.532698,48.947814)"
       xlink:href="#layer1-4" />
    <use
       height="100%"
       width="100%"
       y="0"
       x="0"
       id="use7240"
       transform="matrix(3.78,0,0,3.78,-126.64261,90.839589)"
       xlink:href="#layer1-3" />
    <use
       id="use7302"
       xlink:href="#use7117"
       inkscape:tiled-clone-of="#use7117"
       y="0"
       x="0" />
    <use
       id="use7304"
       transform="translate(0,9.1923437)"
       xlink:href="#use7117"
       inkscape:tiled-clone-of="#use7117"
       y="0"
       x="0" />
    <use
       id="use7306"
       transform="translate(0,18.384687)"
       xlink:href="#use7117"
       inkscape:tiled-clone-of="#use7117"
       y="0"
       x="0" />
    <use
       id="use7308"
       transform="translate(0,27.577031)"
       xlink:href="#use7117"
       inkscape:tiled-clone-of="#use7117"
       y="0"
       x="0" />
    <use
       id="use7310"
       transform="translate(0,36.769375)"
       xlink:href="#use7117"
       inkscape:tiled-clone-of="#use7117"
       y="0"
       x="0" />
    <use
       id="use7312"
       transform="translate(0,45.961718)"
       xlink:href="#use7117"
       inkscape:tiled-clone-of="#use7117"
       y="0"
       x="0" />
    <use
       id="use7314"
       transform="translate(0,55.154062)"
       xlink:href="#use7117"
       inkscape:tiled-clone-of="#use7117"
       y="0"
       x="0" />
    <use
       id="use7316"
       transform="translate(0,64.346406)"
       xlink:href="#use7117"
       inkscape:tiled-clone-of="#use7117"
       y="0"
       x="0" />
  </g>
  <g
     style="display:none"
     transform="matrix(0.27602379,0,0,0.27602379,301.3314,-11.754987)"
     inkscape:label="components"
     id="layer2"
     inkscape:groupmode="layer">
    <text
       id="text1787"
       y="273.28104"
       x="-1010.2094"
       style="font-style:normal;font-weight:normal;font-size:10.2246px;line-height:1.25;font-family:sans-serif;letter-spacing:0px;word-spacing:0px;fill:#000000;fill-opacity:1;stroke:none;stroke-width:0.958553"
       xml:space="preserve" />
    <circle
       inkscape:label="MODE"
       r="3.9687498"
       cy="106.32738"
       cx="-21.133543"
       id="path1587-8-0-3-3"
       style="display:inline;opacity:1;fill:url(#linearGradient1739);fill-opacity:1;stroke-width:0.264583"
       transform="matrix(3.6228762,0,0,3.6228762,-1115.7702,-188.61406)" />
    <circle
       inkscape:label="MODE"
       r="3.9687498"
       cy="116.91071"
       cx="-21.133543"
       id="path1587-8-0-3-6"
       style="display:inline;opacity:1;fill:url(#linearGradient1763);fill-opacity:1;stroke-width:0.264583"
       transform="matrix(3.6228762,0,0,3.6228762,-1115.7702,-188.61406)" />
    <circle
       inkscape:label="MAIN"
       r="14.378289"
       cy="119.91261"
       cx="-1192.3344"
       id="path1587-8-2"
       style="display:inline;opacity:1;fill:url(#linearGradient1751);fill-opacity:1;stroke-width:0.958553"
       transform="translate(-2.9435869e-5)" />
    <circle
       inkscape:label="MAIN"
       r="14.378289"
       cy="158.25471"
       cx="-1192.3344"
       id="path1389"
       style="display:inline;opacity:1;fill:url(#linearGradient1757);fill-opacity:1;stroke-width:0.958553"
       transform="translate(-2.9435869e-5)" />
    <circle
       inkscape:label="MODE"
       r="14.378289"
       cy="81.570503"
       cx="-1192.3344"
       id="path1587-8-0-3"
       style="display:inline;opacity:1;fill:url(#linearGradient1745);fill-opacity:1;stroke-width:0.958553"
       transform="translate(-2.9435869e-5)" />
    <text
       id="text1767"
       y="85.259933"
       x="-1159.7885"
       style="font-style:normal;font-weight:normal;font-size:10.2246px;line-height:1.25;font-family:sans-serif;letter-spacing:0px;word-spacing:0px;fill:#000000;fill-opacity:1;stroke:none;stroke-width:0.958553"
       xml:space="preserve"
       transform="translate(-2.9435869e-5)"><tspan
         style="stroke-width:0.958553"
         y="85.259933"
         x="-1159.7885"
         id="tspan1765"
         sodipodi:role="line">Param</tspan></text>
    <text
       id="text1771"
       y="123.53215"
       x="-1159.7885"
       style="font-style:normal;font-weight:normal;font-size:10.2246px;line-height:1.25;font-family:sans-serif;letter-spacing:0px;word-spacing:0px;fill:#000000;fill-opacity:1;stroke:none;stroke-width:0.958553"
       xml:space="preserve"
       transform="translate(-2.9435869e-5)"><tspan
         style="stroke-width:0.958553"
         y="123.53215"
         x="-1159.7885"
         id="tspan1769"
         sodipodi:role="line">Input</tspan></text>
    <text
       id="text1775"
       y="160.9207"
       x="-1159.359"
       style="font-style:normal;font-weight:normal;font-size:10.2246px;line-height:1.25;font-family:sans-serif;letter-spacing:0px;word-spacing:0px;fill:#000000;fill-opacity:1;stroke:none;stroke-width:0.958553"
       xml:space="preserve"
       transform="translate(-2.9435869e-5)"><tspan
         style="stroke-width:0.958553"
         y="160.9207"
         x="-1159.359"
         id="tspan1773"
         sodipodi:role="line">Output</tspan></text>
    <text
       id="text1779"
       y="199.2628"
       x="-1159.7885"
       style="font-style:normal;font-weight:normal;font-size:10.2246px;line-height:1.25;font-family:sans-serif;letter-spacing:0px;word-spacing:0px;fill:#000000;fill-opacity:1;stroke:none;stroke-width:0.958553"
       xml:space="preserve"
       transform="translate(-2.9435869e-5)"><tspan
         style="stroke-width:0.958553"
         y="199.2628"
         x="-1159.7885"
         id="tspan1777"
         sodipodi:role="line">Light</tspan></text>
    <text
       id="text1783"
       y="237.66982"
       x="-1159.3491"
       style="font-style:normal;font-weight:normal;font-size:10.2246px;line-height:1.25;font-family:sans-serif;letter-spacing:0px;word-spacing:0px;fill:#000000;fill-opacity:1;stroke:none;stroke-width:0.958553"
       xml:space="preserve"
       transform="translate(-2.9435869e-5)"><tspan
         style="stroke-width:0.958553"
         y="237.66982"
         x="-1159.3491"
         id="tspan1781"
         sodipodi:role="line">Custom</tspan></text>
  </g>
</svg>
